<svg width="24" height="24" viewBox="0 0 24 24" fill="none" xmlns="http://www.w3.org/2000/svg">
<mask id="mask0_2012_727" style="mask-type:alpha" maskUnits="userSpaceOnUse" x="0" y="0" width="24" height="24">
<rect width="24" height="24" fill="#D9D9D9"/>
</mask>
<g mask="url(#mask0_2012_727)">
<path d="M7.0385 20C6.89683 20 6.77808 19.9521 6.68225 19.8563C6.58642 19.7604 6.5385 19.6417 6.5385 19.5V17.6038C6.21283 17.4628 5.875 17.1625 5.525 16.703C5.175 16.2433 5 15.7142 5 15.1155V6C5 4.9625 5.56142 4.20308 6.68425 3.72175C7.80708 3.24058 9.57875 3 11.9992 3C14.5074 3 16.3012 3.23125 17.3807 3.69375C18.4602 4.15625 19 4.925 19 6V15.1155C19 15.7142 18.825 16.2433 18.475 16.703C18.125 17.1625 17.7872 17.4628 17.4615 17.6038V19.5C17.4615 19.6417 17.4136 19.7604 17.3178 19.8563C17.2219 19.9521 17.1032 20 16.9615 20H16.7308C16.5891 20 16.4703 19.9521 16.3745 19.8563C16.2787 19.7604 16.2308 19.6417 16.2308 19.5V18H7.76925V19.5C7.76925 19.6417 7.72133 19.7604 7.6255 19.8563C7.52967 19.9521 7.41092 20 7.26925 20H7.0385ZM6 11H18V6.5385H6V11ZM8.5045 15.6155C8.81567 15.6155 9.07858 15.5066 9.29325 15.2887C9.50808 15.0709 9.6155 14.8065 9.6155 14.4955C9.6155 14.1843 9.50658 13.9214 9.28875 13.7067C9.07092 13.4919 8.8065 13.3845 8.4955 13.3845C8.18433 13.3845 7.92142 13.4934 7.70675 13.7113C7.49192 13.9291 7.3845 14.1935 7.3845 14.5045C7.3845 14.8157 7.49342 15.0786 7.71125 15.2933C7.92908 15.5081 8.1935 15.6155 8.5045 15.6155ZM15.5045 15.6155C15.8157 15.6155 16.0786 15.5066 16.2933 15.2887C16.5081 15.0709 16.6155 14.8065 16.6155 14.4955C16.6155 14.1843 16.5066 13.9214 16.2887 13.7067C16.0709 13.4919 15.8065 13.3845 15.4955 13.3845C15.1843 13.3845 14.9214 13.4934 14.7068 13.7113C14.4919 13.9291 14.3845 14.1935 14.3845 14.5045C14.3845 14.8157 14.4934 15.0786 14.7113 15.2933C14.9291 15.5081 15.1935 15.6155 15.5045 15.6155ZM6.10375 5.5385H17.9193C17.7461 5.02433 17.2118 4.63942 16.3163 4.38375C15.4208 4.12792 13.9858 4 12.0115 4C10.0487 4 8.6195 4.12983 7.724 4.3895C6.8285 4.649 6.28842 5.032 6.10375 5.5385ZM8 17H16C16.55 17 17.0208 16.8042 17.4125 16.4125C17.8042 16.0208 18 15.55 18 15V12H6V15C6 15.55 6.19583 16.0208 6.5875 16.4125C6.97917 16.8042 7.45 17 8 17Z" fill="#4A4A4A"/>
</g>
</svg>
