<svg width="20" height="20" viewBox="0 0 20 20" fill="none" xmlns="http://www.w3.org/2000/svg">
<mask id="mask0_2342_688" style="mask-type:alpha" maskUnits="userSpaceOnUse" x="0" y="0" width="20" height="20">
<rect width="20" height="20" fill="#D9D9D9"/>
</mask>
<g mask="url(#mask0_2342_688)">
<path d="M16.2 17.0833C14.6296 17.0833 13.0519 16.7182 11.4669 15.9879C9.88206 15.2576 8.42588 14.2275 7.09838 12.8975C5.77102 11.5674 4.7422 10.1111 4.01192 8.52875C3.28164 6.94653 2.9165 5.37021 2.9165 3.79979C2.9165 3.54743 2.99984 3.33715 3.1665 3.16896C3.33317 3.00076 3.5415 2.91667 3.7915 2.91667H6.50942C6.71984 2.91667 6.90546 2.98535 7.0663 3.12271C7.22713 3.25993 7.32942 3.42952 7.37317 3.63146L7.85088 6.08333C7.88394 6.31083 7.87699 6.50632 7.83005 6.66979C7.78296 6.83327 7.69852 6.97056 7.57671 7.08167L5.65213 8.95521C5.96185 9.52243 6.31574 10.059 6.7138 10.565C7.11171 11.0708 7.54255 11.554 8.0063 12.0144C8.46352 12.4717 8.94963 12.8965 9.46463 13.2885C9.97963 13.6806 10.5357 14.0455 11.133 14.3831L13.003 12.4969C13.1334 12.3612 13.2913 12.266 13.4767 12.2115C13.662 12.157 13.8546 12.1437 14.0544 12.1715L16.3684 12.6427C16.5788 12.6983 16.7505 12.8056 16.8836 12.9648C17.0166 13.124 17.0832 13.3045 17.0832 13.5065V16.2083C17.0832 16.4583 16.9991 16.6667 16.8309 16.8333C16.6627 17 16.4524 17.0833 16.2 17.0833ZM5.06067 7.7725L6.54796 6.34938C6.57463 6.32799 6.59199 6.29861 6.60005 6.26125C6.6081 6.22389 6.60678 6.18917 6.59609 6.15708L6.2338 4.29479C6.2231 4.25215 6.20442 4.22014 6.17775 4.19875C6.15109 4.17736 6.11637 4.16667 6.07359 4.16667H4.2915C4.25942 4.16667 4.23268 4.17736 4.2113 4.19875C4.19005 4.22014 4.17942 4.24688 4.17942 4.27896C4.22206 4.8484 4.31525 5.42688 4.459 6.01438C4.60262 6.60202 4.80317 7.18806 5.06067 7.7725ZM12.3107 14.9744C12.863 15.2319 13.4391 15.4288 14.039 15.565C14.639 15.7011 15.1996 15.782 15.7209 15.8077C15.753 15.8077 15.7797 15.797 15.8011 15.7756C15.8225 15.7542 15.8332 15.7275 15.8332 15.6954V13.9423C15.8332 13.8995 15.8225 13.8648 15.8011 13.8381C15.7797 13.8115 15.7477 13.7928 15.705 13.7821L13.955 13.4263C13.923 13.4156 13.8949 13.4142 13.8709 13.4223C13.8469 13.4303 13.8214 13.4477 13.7946 13.4744L12.3107 14.9744Z" fill="#4A4A4A"/>
</g>
</svg>
