<svg width="36" height="36" viewBox="0 0 36 36" fill="none" xmlns="http://www.w3.org/2000/svg">
<mask id="mask0_2038_206" style="mask-type:alpha" maskUnits="userSpaceOnUse" x="0" y="0" width="36" height="36">
<rect width="36" height="36" fill="#D9D9D9"/>
</mask>
<g mask="url(#mask0_2038_206)">
<path d="M18.0003 32.2498C16.231 32.2498 14.5734 31.9151 13.0274 31.2459C11.4811 30.5766 10.133 29.667 8.98301 28.517C7.83301 27.367 6.92338 26.0189 6.25413 24.4726C5.58488 22.9266 5.25026 21.269 5.25026 19.4998C5.25026 17.7305 5.58488 16.0729 6.25413 14.5269C6.92338 12.9806 7.83301 11.6325 8.98301 10.4825C10.133 9.33252 11.4811 8.4229 13.0274 7.75365C14.5734 7.0844 16.231 6.74977 18.0003 6.74977C19.7695 6.74977 21.4271 7.0844 22.9731 7.75365C24.5194 8.4229 25.8675 9.33252 27.0175 10.4825C28.1675 11.6325 29.0771 12.9806 29.7464 14.5269C30.4156 16.0729 30.7503 17.7305 30.7503 19.4998C30.7503 21.269 30.4156 22.9266 29.7464 24.4726C29.0771 26.0189 28.1675 27.367 27.0175 28.517C25.8675 29.667 24.5194 30.5766 22.9731 31.2459C21.4271 31.9151 19.7695 32.2498 18.0003 32.2498ZM22.4598 25.5403L24.0408 23.9593L19.1253 19.0441V11.9998H16.8753V19.9554L22.4598 25.5403ZM8.63088 4.33252L10.2119 5.91315L4.41363 11.7114L2.83301 10.1304L8.63088 4.33252ZM27.3696 4.33252L33.1675 10.1304L31.5869 11.7114L25.7886 5.91315L27.3696 4.33252ZM18.0003 29.9998C20.9158 29.9998 23.3946 28.9786 25.4369 26.9364C27.4791 24.8941 28.5003 22.4153 28.5003 19.4998C28.5003 16.5843 27.4791 14.1054 25.4369 12.0631C23.3946 10.0209 20.9158 8.99977 18.0003 8.99977C15.0848 8.99977 12.6059 10.0209 10.5636 12.0631C8.52138 14.1054 7.50026 16.5843 7.50026 19.4998C7.50026 22.4153 8.52138 24.8941 10.5636 26.9364C12.6059 28.9786 15.0848 29.9998 18.0003 29.9998Z" fill="white"/>
</g>
</svg>
