<svg width="20" height="20" viewBox="0 0 20 20" fill="none" xmlns="http://www.w3.org/2000/svg">
<mask id="mask0_2344_668" style="mask-type:alpha" maskUnits="userSpaceOnUse" x="0" y="0" width="20" height="20">
<rect width="20" height="20" fill="#D9D9D9"/>
</mask>
<g mask="url(#mask0_2344_668)">
<path d="M9.99998 17.9167C9.01706 17.9167 8.09616 17.7308 7.23727 17.359C6.37824 16.9872 5.62929 16.4818 4.9904 15.8429C4.35151 15.204 3.84616 14.4551 3.47436 13.596C3.10255 12.7372 2.91665 11.8162 2.91665 10.8333C2.91665 9.85042 3.10255 8.92951 3.47436 8.07062C3.84616 7.2116 4.35151 6.46264 4.9904 5.82375C5.62929 5.18486 6.37824 4.67951 7.23727 4.30771C8.09616 3.9359 9.01706 3.75 9.99998 3.75C10.9829 3.75 11.9038 3.9359 12.7627 4.30771C13.6217 4.67951 14.3707 5.18486 15.0096 5.82375C15.6485 6.46264 16.1538 7.2116 16.5256 8.07062C16.8974 8.92951 17.0833 9.85042 17.0833 10.8333C17.0833 11.8162 16.8974 12.7372 16.5256 13.596C16.1538 14.4551 15.6485 15.204 15.0096 15.8429C14.3707 16.4818 13.6217 16.9872 12.7627 17.359C11.9038 17.7308 10.9829 17.9167 9.99998 17.9167ZM12.4775 14.1892L13.3558 13.3108L10.625 10.5802V6.66667H9.37498V11.0865L12.4775 14.1892ZM4.79477 2.40708L5.67311 3.28521L2.45186 6.50646L1.57373 5.62812L4.79477 2.40708ZM15.2052 2.40708L18.4262 5.62812L17.5481 6.50646L14.3269 3.28521L15.2052 2.40708ZM9.99998 16.6667C11.6197 16.6667 12.9969 16.0994 14.1314 14.9648C15.266 13.8302 15.8333 12.4531 15.8333 10.8333C15.8333 9.21361 15.266 7.83646 14.1314 6.70187C12.9969 5.56729 11.6197 5 9.99998 5C8.38026 5 7.00311 5.56729 5.86852 6.70187C4.73394 7.83646 4.16665 9.21361 4.16665 10.8333C4.16665 12.4531 4.73394 13.8302 5.86852 14.9648C7.00311 16.0994 8.38026 16.6667 9.99998 16.6667Z" fill="#4A4A4A"/>
</g>
</svg>
