<svg width="24" height="24" viewBox="0 0 24 24" fill="none" xmlns="http://www.w3.org/2000/svg">
<path fill-rule="evenodd" clip-rule="evenodd" d="M17.4097 18.3641C17.6731 18.6275 18.1008 18.6275 18.3642 18.3641C18.6277 18.1006 18.6277 17.6729 18.3642 17.4095L12.9548 12L18.3642 6.59053C18.6277 6.32707 18.6277 5.89941 18.3642 5.63594C18.1008 5.37247 17.6731 5.37247 17.4097 5.63594L12.0002 11.0454L6.59092 5.63614C6.32745 5.37267 5.89979 5.37267 5.63632 5.63614C5.37286 5.8996 5.37286 6.32726 5.63632 6.59073L11.0456 12L5.63632 17.4093C5.37286 17.6727 5.37286 18.1004 5.63632 18.3639C5.89979 18.6273 6.32745 18.6273 6.59092 18.3639L12.0002 12.9546L17.4097 18.3641Z" fill="#F15921"/>
</svg>
