<svg width="20" height="20" viewBox="0 0 20 20" fill="none" xmlns="http://www.w3.org/2000/svg">
<path fill-rule="evenodd" clip-rule="evenodd" d="M2.20118 4.69882H4.99568C5.23265 5.59953 6.0538 6.26577 7.0278 6.26577C8.00179 6.26577 8.82294 5.59953 9.05991 4.69882H17.7994C18.0944 4.69882 18.3336 4.45965 18.3336 4.16464C18.3336 3.86962 18.0944 3.63045 17.7994 3.63045H9.05984C8.82287 2.72974 8.00172 2.06351 7.02772 2.06351C6.05373 2.06351 5.23257 2.72974 4.99561 3.63045H2.20118C1.90616 3.63045 1.66699 3.86962 1.66699 4.16464C1.66699 4.45965 1.90616 4.69882 2.20118 4.69882ZM7.0278 3.13188C7.59724 3.13188 8.06055 3.5952 8.06055 4.16464C8.06055 4.73408 7.59724 5.1974 7.0278 5.1974C6.45835 5.1974 5.99504 4.73408 5.99504 4.16464C5.99504 3.5952 6.45835 3.13188 7.0278 3.13188ZM17.7994 9.46592H14.2389C14.002 8.56521 13.1808 7.89897 12.2068 7.89897C11.2328 7.89897 10.4117 8.56521 10.1747 9.46592H2.20122C1.90621 9.46592 1.66704 9.70509 1.66704 10.0001C1.66704 10.2951 1.90621 10.5343 2.20122 10.5343H10.1748C10.4117 11.4349 11.2329 12.1012 12.2069 12.1012C13.1809 12.1012 14.002 11.4349 14.239 10.5343H17.7995C18.0945 10.5343 18.3337 10.2951 18.3337 10.0001C18.3337 9.70509 18.0945 9.46592 17.7994 9.46592ZM12.2069 11.0329C11.6374 11.0329 11.1741 10.5695 11.1741 10.0001C11.1741 9.43066 11.6374 8.96734 12.2069 8.96734C12.7763 8.96734 13.2396 9.43066 13.2396 10.0001C13.2396 10.5695 12.7763 11.0329 12.2069 11.0329ZM9.05988 15.3014H17.7994C18.0945 15.3014 18.3336 15.5405 18.3336 15.8355C18.3336 16.1306 18.0945 16.3697 17.7994 16.3697H9.05995C8.82299 17.2704 8.00184 17.9367 7.02784 17.9367C6.05384 17.9367 5.23269 17.2704 4.99572 16.3697H2.20122C1.90621 16.3697 1.66704 16.1306 1.66704 15.8355C1.66704 15.5405 1.90621 15.3014 2.20122 15.3014H4.99565C5.23262 14.4007 6.05377 13.7344 7.02777 13.7344C8.00177 13.7344 8.82292 14.4007 9.05988 15.3014ZM5.99508 15.8355C5.99508 16.405 6.4584 16.8683 7.02784 16.8683C7.59728 16.8683 8.0606 16.405 8.0606 15.8355C8.0606 15.2661 7.59728 14.8028 7.02784 14.8028C6.4584 14.8028 5.99508 15.2661 5.99508 15.8355Z" fill="#1C1C1C"/>
</svg>
