<svg width="20" height="20" viewBox="0 0 20 20" fill="none" xmlns="http://www.w3.org/2000/svg">
<path fill-rule="evenodd" clip-rule="evenodd" d="M4.58839 15.4556V6.90525L3.38701 8.55993C3.13401 8.90839 2.64639 8.98571 2.29799 8.73261C1.94971 8.47959 1.87244 7.99216 2.1254 7.64383L4.88233 3.84746C5.12191 3.51754 5.61372 3.51754 5.8533 3.84746L8.61023 7.64383C8.86319 7.99216 8.78592 8.47959 8.43764 8.73261C8.08924 8.98572 7.60162 8.9084 7.34861 8.55993L6.1472 6.90525V15.4556C6.1472 15.8861 5.79825 16.235 5.3678 16.235C4.93734 16.235 4.58839 15.8861 4.58839 15.4556ZM15.4133 4.54436V13.0948L16.6148 11.44C16.8677 11.0918 17.3549 11.0144 17.7031 11.2671C18.0515 11.52 18.129 12.0074 17.876 12.3557L15.1194 16.1524C14.8798 16.4824 14.388 16.4824 14.1484 16.1525L11.3913 12.3561C11.1383 12.0078 11.2155 11.5204 11.5638 11.2673C11.9122 11.0142 12.3998 11.0915 12.6528 11.44L13.8545 13.0949V4.54436C13.8545 4.1139 14.2034 3.76495 14.6339 3.76495C15.0643 3.76495 15.4133 4.1139 15.4133 4.54436Z" fill="#4A4A4A"/>
</svg>
