<svg width="28" height="28" viewBox="0 0 28 28" fill="none" xmlns="http://www.w3.org/2000/svg">
<path fill-rule="evenodd" clip-rule="evenodd" d="M5.6 3.5H11.2C11.757 3.5 12.2911 3.72125 12.6849 4.11508C13.0788 4.5089 13.3 5.04305 13.3 5.6V11.2C13.3 11.757 13.0788 12.2911 12.6849 12.6849C12.2911 13.0788 11.757 13.3 11.2 13.3H5.6C5.04305 13.3 4.5089 13.0788 4.11508 12.6849C3.72125 12.2911 3.5 11.757 3.5 11.2V5.6C3.5 5.04305 3.72125 4.5089 4.11508 4.11508C4.5089 3.72125 5.04305 3.5 5.6 3.5ZM11.695 11.695C11.8263 11.5637 11.9 11.3857 11.9 11.2V5.6C11.9 5.41435 11.8263 5.2363 11.695 5.10503C11.5637 4.97375 11.3857 4.9 11.2 4.9H5.6C5.41435 4.9 5.2363 4.97375 5.10503 5.10503C4.97375 5.2363 4.9 5.41435 4.9 5.6V11.2C4.9 11.3857 4.97375 11.5637 5.10503 11.695C5.2363 11.8263 5.41435 11.9 5.6 11.9H11.2C11.3857 11.9 11.5637 11.8263 11.695 11.695ZM16.8001 3.5H22.4001C22.9571 3.5 23.4912 3.72125 23.885 4.11508C24.2789 4.5089 24.5001 5.04305 24.5001 5.6V11.2C24.5001 11.757 24.2789 12.2911 23.885 12.6849C23.4912 13.0788 22.9571 13.3 22.4001 13.3H16.8001C16.2432 13.3 15.709 13.0788 15.3152 12.6849C14.9214 12.2911 14.7001 11.757 14.7001 11.2V5.6C14.7001 5.04305 14.9214 4.5089 15.3152 4.11508C15.709 3.72125 16.2432 3.5 16.8001 3.5ZM22.8951 11.695C23.0264 11.5637 23.1001 11.3857 23.1001 11.2V5.6C23.1001 5.41435 23.0264 5.2363 22.8951 5.10503C22.7638 4.97375 22.5858 4.9 22.4001 4.9H16.8001C16.6145 4.9 16.4364 4.97375 16.3051 5.10503C16.1739 5.2363 16.1001 5.41435 16.1001 5.6V11.2C16.1001 11.3857 16.1739 11.5637 16.3051 11.695C16.4364 11.8263 16.6145 11.9 16.8001 11.9H22.4001C22.5858 11.9 22.7638 11.8263 22.8951 11.695ZM11.2 14.7H5.6C5.04305 14.7 4.5089 14.9212 4.11508 15.315C3.72125 15.7089 3.5 16.243 3.5 16.8V22.4C3.5 22.9569 3.72125 23.4911 4.11508 23.8849C4.5089 24.2787 5.04305 24.5 5.6 24.5H11.2C11.757 24.5 12.2911 24.2787 12.6849 23.8849C13.0788 23.4911 13.3 22.9569 13.3 22.4V16.8C13.3 16.243 13.0788 15.7089 12.6849 15.315C12.2911 14.9212 11.757 14.7 11.2 14.7ZM11.9 22.4C11.9 22.5856 11.8263 22.7637 11.695 22.8949C11.5637 23.0262 11.3857 23.1 11.2 23.1H5.6C5.41435 23.1 5.2363 23.0262 5.10503 22.8949C4.97375 22.7637 4.9 22.5856 4.9 22.4V16.8C4.9 16.6143 4.97375 16.4363 5.10503 16.305C5.2363 16.1737 5.41435 16.1 5.6 16.1H11.2C11.3857 16.1 11.5637 16.1737 11.695 16.305C11.8263 16.4363 11.9 16.6143 11.9 16.8V22.4ZM16.8001 14.7H22.4001C22.9571 14.7 23.4912 14.9212 23.885 15.315C24.2789 15.7089 24.5001 16.243 24.5001 16.8V22.4C24.5001 22.9569 24.2789 23.4911 23.885 23.8849C23.4912 24.2787 22.9571 24.5 22.4001 24.5H16.8001C16.2432 24.5 15.709 24.2787 15.3152 23.8849C14.9214 23.4911 14.7001 22.9569 14.7001 22.4V16.8C14.7001 16.243 14.9214 15.7089 15.3152 15.315C15.709 14.9212 16.2432 14.7 16.8001 14.7ZM22.8951 22.8949C23.0264 22.7637 23.1001 22.5856 23.1001 22.4V16.8C23.1001 16.6143 23.0264 16.4363 22.8951 16.305C22.7638 16.1737 22.5858 16.1 22.4001 16.1H16.8001C16.6145 16.1 16.4364 16.1737 16.3051 16.305C16.1739 16.4363 16.1001 16.6143 16.1001 16.8V22.4C16.1001 22.5856 16.1739 22.7637 16.3051 22.8949C16.4364 23.0262 16.6145 23.1 16.8001 23.1H22.4001C22.5858 23.1 22.7638 23.0262 22.8951 22.8949Z" fill="#1C1C1C"/>
</svg>
