<svg width="21" height="20" viewBox="0 0 21 20" fill="none" xmlns="http://www.w3.org/2000/svg">
<mask id="mask0_2342_683" style="mask-type:alpha" maskUnits="userSpaceOnUse" x="0" y="0" width="21" height="20">
<rect x="0.5" width="20" height="20" fill="#D9D9D9"/>
</mask>
<g mask="url(#mask0_2342_683)">
<path d="M10.5014 9.88771C10.916 9.88771 11.2704 9.74007 11.5648 9.44479C11.8592 9.14951 12.0064 8.79458 12.0064 8.38C12.0064 7.96542 11.8588 7.6109 11.5635 7.31646C11.2682 7.02215 10.9132 6.875 10.4985 6.875C10.0839 6.875 9.72947 7.02264 9.43517 7.31792C9.14072 7.61319 8.9935 7.96819 8.9935 8.38292C8.9935 8.7975 9.14114 9.15194 9.43642 9.44625C9.7317 9.74055 10.0867 9.88771 10.5014 9.88771ZM10.5 16.2612C12.1302 14.8018 13.3778 13.4019 14.2427 12.0617C15.1075 10.7214 15.54 9.5475 15.54 8.54C15.54 7.02083 15.0573 5.77194 14.092 4.79333C13.1268 3.81472 11.9294 3.32542 10.5 3.32542C9.07052 3.32542 7.87315 3.81472 6.90788 4.79333C5.9426 5.77194 5.45996 7.02083 5.45996 8.54C5.45996 9.5475 5.89239 10.7214 6.75725 12.0617C7.62211 13.4019 8.86968 14.8018 10.5 16.2612ZM10.5 17.9246C8.40274 16.1074 6.8301 14.4162 5.78204 12.851C4.73399 11.2858 4.20996 9.84875 4.20996 8.54C4.20996 6.61694 4.83197 5.06007 6.076 3.86937C7.32017 2.67868 8.79482 2.08333 10.5 2.08333C12.2051 2.08333 13.6798 2.67868 14.9239 3.86937C16.1679 5.06007 16.79 6.61694 16.79 8.54C16.79 9.84875 16.2659 11.2858 15.2179 12.851C14.1698 14.4162 12.5972 16.1074 10.5 17.9246Z" fill="#1C1C1C"/>
</g>
</svg>
