<svg width="21" height="20" viewBox="0 0 21 20" fill="none" xmlns="http://www.w3.org/2000/svg">
<mask id="mask0_2342_678" style="mask-type:alpha" maskUnits="userSpaceOnUse" x="0" y="0" width="21" height="20">
<rect x="0.5" width="20" height="20" fill="#D9D9D9"/>
</mask>
<g mask="url(#mask0_2342_678)">
<path d="M12.9998 17.0513L7.99984 15.3013L4.41338 16.689C4.16768 16.7841 3.94012 16.7569 3.73067 16.6073C3.52123 16.4577 3.4165 16.2531 3.4165 15.9935V5.06417C3.4165 4.89958 3.4606 4.75187 3.5488 4.62104C3.63685 4.49021 3.76053 4.39542 3.91984 4.33667L7.99984 2.94875L12.9998 4.69875L16.5863 3.31104C16.832 3.2159 17.0596 3.2391 17.269 3.38063C17.4784 3.52215 17.5832 3.72007 17.5832 3.97438V14.9679C17.5832 15.1378 17.5351 15.2868 17.439 15.415C17.3428 15.5432 17.2124 15.6367 17.048 15.6954L12.9998 17.0513ZM12.3748 15.5225V5.7725L8.62484 4.46146V14.2115L12.3748 15.5225ZM13.6248 15.5225L16.3332 14.625V4.75L13.6248 5.7725V15.5225ZM4.6665 15.25L7.37484 14.2115V4.46146L4.6665 5.375V15.25Z" fill="#1C1C1C"/>
</g>
</svg>
