<svg width="21" height="20" viewBox="0 0 21 20" fill="none" xmlns="http://www.w3.org/2000/svg">
<path d="M8.9171 13.4764C10.3242 13.4764 11.5191 12.9845 12.5019 12.0006C13.4848 11.0166 13.9762 9.82192 13.9762 8.4164C13.9762 7.01075 13.4843 5.81568 12.5005 4.83121C11.5167 3.84674 10.3221 3.3545 8.91669 3.3545C7.51129 3.3545 6.31579 3.84639 5.33019 4.83017C4.34473 5.81409 3.85201 7.00888 3.85201 8.41453C3.85201 9.82005 4.34446 11.015 5.32936 11.9995C6.31426 12.9841 7.51018 13.4764 8.9171 13.4764ZM8.91814 14.7217C7.16329 14.7217 5.6725 14.1089 4.44577 12.8833C3.2189 11.6576 2.60547 10.1683 2.60547 8.41536C2.60547 6.66241 3.2189 5.17311 4.44577 3.94747C5.6725 2.72196 7.16329 2.10921 8.91814 2.10921C10.6729 2.10921 12.1623 2.72196 13.3864 3.94747C14.6106 5.17311 15.2227 6.66241 15.2227 8.41536C15.2227 9.17873 15.0975 9.89775 14.8471 10.5724C14.5967 11.2471 14.2472 11.8575 13.7988 12.4036L18.3949 17.0079L17.5271 17.8908L12.9102 13.2911C12.3636 13.7445 11.7527 14.0963 11.0774 14.3465C10.4019 14.5966 9.68213 14.7217 8.91814 14.7217Z" fill="#1C1C1C"/>
</svg>
