<svg width="44" height="44" viewBox="0 0 44 44" fill="none" xmlns="http://www.w3.org/2000/svg">
<g clip-path="url(#clip0_2100_4653)">
<rect x="3" y="3" width="38" height="38" rx="19" stroke="#1C1C1C" stroke-width="6"/>
<mask id="mask0_2100_4653" style="mask-type:luminance" maskUnits="userSpaceOnUse" x="4" y="4" width="36" height="36">
<path d="M40 4H4V40H40V4Z" fill="white"/>
</mask>
<g mask="url(#mask0_2100_4653)">
<path fill-rule="evenodd" clip-rule="evenodd" d="M40 22C40 31.941 31.941 40 22 40C12.0589 40 4 31.941 4 22C4 12.0589 12.0589 4 22 4C31.941 4 40 12.0589 40 22ZM22.6451 17.2884C20.8943 18.0166 17.3952 19.5238 12.1478 21.81C11.2957 22.1489 10.8494 22.4802 10.8088 22.8044C10.7401 23.3522 11.4261 23.568 12.3602 23.8617C12.4873 23.9017 12.6189 23.9431 12.7539 23.9868C13.6729 24.2856 14.9092 24.6352 15.5519 24.6491C16.1349 24.6617 16.7856 24.4214 17.504 23.928C22.4068 20.6185 24.9376 18.9457 25.0965 18.9097C25.2085 18.8842 25.3638 18.8522 25.4691 18.9458C25.5744 19.0393 25.564 19.2165 25.5528 19.264C25.485 19.5537 22.7922 22.0571 21.3987 23.3527C20.9643 23.7566 20.6561 24.043 20.5931 24.1085C20.452 24.255 20.3082 24.3936 20.17 24.5268C19.3161 25.35 18.6759 25.9672 20.2054 26.9752C20.9405 27.4596 21.5287 27.8601 22.1154 28.2597C22.7562 28.6962 23.3954 29.1314 24.2225 29.6736C24.4331 29.8116 24.6343 29.9551 24.8303 30.0948C25.5761 30.6265 26.2462 31.104 27.0738 31.0279C27.5548 30.9836 28.0518 30.5315 28.304 29.1825C28.9003 25.9947 30.0725 19.0877 30.3434 16.2415C30.3671 15.9921 30.3372 15.673 30.3133 15.5329C30.2892 15.3928 30.2391 15.1932 30.057 15.0454C29.8413 14.8704 29.5085 14.8335 29.3595 14.8361C28.6825 14.8481 27.6439 15.2092 22.6451 17.2884Z" fill="#1C1C1C"/>
</g>
</g>
<defs>
<clipPath id="clip0_2100_4653">
<rect width="44" height="44" fill="white"/>
</clipPath>
</defs>
</svg>
