<svg width="44" height="44" viewBox="0 0 44 44" fill="none" xmlns="http://www.w3.org/2000/svg">
<rect x="3" y="3" width="38" height="38" rx="19" stroke="#1C1C1C" stroke-width="6"/>
<mask id="mask0_2395_716" style="mask-type:luminance" maskUnits="userSpaceOnUse" x="4" y="4" width="36" height="36">
<path d="M40 4H4V40H40V4Z" fill="white"/>
</mask>
<g mask="url(#mask0_2395_716)">
<path d="M22 4C12.0592 4 4 12.0589 4 22C4 31.9412 12.0592 40 22 40C31.9409 40 40 31.9412 40 22C40 12.0589 31.9409 4 22 4ZM31.1305 23.9467C31.9695 24.7662 32.8571 25.5374 33.6102 26.4415C33.9439 26.8415 34.2584 27.2551 34.4978 27.7202C34.8396 28.3835 34.5309 29.1109 33.9372 29.1503L30.2496 29.1496C29.2972 29.2284 28.5392 28.8443 27.9004 28.1931C27.3903 27.6741 26.9171 27.1199 26.4257 26.5833C26.225 26.363 26.0136 26.1557 25.7616 25.9926C25.2589 25.6655 24.8222 25.7658 24.5342 26.2908C24.2406 26.8253 24.1737 27.4175 24.1456 28.0124C24.1055 28.8818 23.8432 29.1091 22.9707 29.15C21.1065 29.2373 19.3377 28.9543 17.6936 28.0145C16.2433 27.1854 15.1208 26.0154 14.1426 24.6906C12.2378 22.1084 10.7791 19.2739 9.46831 16.3582C9.17333 15.7016 9.38913 15.3502 10.1136 15.3366C11.3171 15.3134 12.5207 15.3163 13.7242 15.3355C14.2141 15.3432 14.5382 15.6235 14.7263 16.0857C15.3767 17.6859 16.1741 19.2084 17.1732 20.6204C17.4395 20.9964 17.7113 21.3713 18.0984 21.6369C18.5256 21.93 18.8512 21.8332 19.0526 21.3562C19.1815 21.0531 19.2371 20.729 19.2651 20.4042C19.3609 19.2916 19.3723 18.1794 19.2065 17.0712C19.1034 16.3777 18.7134 15.9299 18.0221 15.7988C17.6701 15.7321 17.7216 15.6018 17.8929 15.4007C18.1901 15.053 18.4685 14.8379 19.025 14.8379L23.1914 14.8372C23.8481 14.9661 23.9953 15.2607 24.0846 15.9222L24.0882 20.5523C24.0804 20.8082 24.2167 21.5669 24.6764 21.7345C25.0447 21.856 25.2877 21.5606 25.5078 21.3275C26.507 20.2672 27.2189 19.0158 27.8565 17.7205C28.1378 17.1493 28.3806 16.5582 28.6163 15.966C28.7916 15.5281 29.0641 15.3127 29.5584 15.32L33.5704 15.3248C33.6887 15.3248 33.8087 15.3259 33.9259 15.3462C34.602 15.4618 34.7872 15.7528 34.578 16.4123C34.2488 17.4487 33.6091 18.312 32.9838 19.1775C32.3135 20.1041 31.5987 20.9983 30.935 21.9289C30.3252 22.7796 30.3734 23.208 31.1305 23.9467Z" fill="#1C1C1C"/>
</g>
</svg>
