<svg width="895" height="935" viewBox="0 0 895 935" fill="none" xmlns="http://www.w3.org/2000/svg">
<g clip-path="url(#clip0_2135_8024)">
<rect width="895" height="935" rx="8" fill="white"/>
<rect x="2" y="2" width="891" height="931" rx="6" stroke="#4A4A4A" stroke-opacity="0.32" stroke-width="4"/>
<path d="M464.6 6H12.4025C10.1615 6 9.041 6 8.18519 6.43619C7.43239 6.81987 6.82043 7.43207 6.43704 8.18502C6.00119 9.041 6.00163 10.1615 6.00251 12.4025L6.11225 292.518C6.11312 294.757 6.11356 295.877 6.54966 296.732C6.93326 297.484 7.54514 298.096 8.29764 298.479C9.15312 298.915 10.2728 298.915 12.5122 298.915H58.4426C60.6828 298.915 61.8029 298.915 62.6585 299.351C63.4112 299.735 64.0231 300.347 64.4066 301.099C64.8426 301.955 64.8426 303.075 64.8426 305.315V377.6C64.8426 379.84 64.8426 380.96 65.2786 381.816C65.662 382.569 66.274 383.181 67.0266 383.564C67.8823 384 69.0024 384 71.2426 384H318.929C321.169 384 322.289 384 323.145 383.564C323.897 383.181 324.509 382.569 324.893 381.816C325.329 380.96 325.329 379.84 325.329 377.6V70.8562C325.329 68.616 325.329 67.4959 325.765 66.6402C326.148 65.8876 326.76 65.2757 327.513 64.8922C328.368 64.4562 329.488 64.4562 331.729 64.4562H464.6C466.84 64.4562 467.96 64.4562 468.816 64.0202C469.569 63.6367 470.181 63.0248 470.564 62.2722C471 61.4165 471 60.2964 471 58.0562V12.4C471 10.1598 471 9.03969 470.564 8.18404C470.181 7.43139 469.569 6.81947 468.816 6.43597C467.96 6 466.84 6 464.6 6Z" fill="black" fill-opacity="0.05"/>
<rect x="6" y="301" width="57" height="83" rx="4" fill="black" fill-opacity="0.05"/>
<rect x="129" y="412" width="71" height="84" rx="4" fill="black" fill-opacity="0.05"/>
<rect x="390" y="464" width="67" height="24" rx="4" fill="black" fill-opacity="0.05"/>
<path d="M302.306 929H12.4C10.1598 929 9.03969 929 8.18404 928.564C7.43139 928.181 6.81947 927.569 6.43597 926.816C6 925.96 6 924.84 6 922.6V719.4C6 717.16 6 716.04 6.43597 715.184C6.81947 714.431 7.43139 713.819 8.18404 713.436C9.03969 713 10.1598 713 12.4 713H193.499C195.739 713 196.859 713 197.715 713.436C198.468 713.819 199.08 714.431 199.463 715.184C199.899 716.04 199.899 717.16 199.899 719.4V720.535C199.899 722.776 199.899 723.896 200.335 724.751C200.719 725.504 201.331 726.116 202.083 726.5C202.939 726.935 204.059 726.935 206.299 726.935H497.6C499.84 726.935 500.96 726.935 501.816 727.371C502.569 727.755 503.181 728.367 503.564 729.12C504 729.975 504 731.095 504 733.335V922.6C504 924.84 504 925.96 503.564 926.816C503.181 927.569 502.569 928.181 501.816 928.564C500.96 929 499.84 929 497.6 929H352.77C350.53 929 349.409 929 348.554 928.564C347.801 928.181 347.189 927.569 346.806 926.816C346.37 925.96 346.37 924.84 346.37 922.6V853.181C346.37 850.94 346.37 849.82 345.934 848.965C345.55 848.212 344.938 847.6 344.186 847.217C343.33 846.781 342.21 846.781 339.97 846.781H315.106C312.866 846.781 311.746 846.781 310.89 847.217C310.137 847.6 309.525 848.212 309.142 848.965C308.706 849.82 308.706 850.94 308.706 853.181V922.6C308.706 924.84 308.706 925.96 308.27 926.816C307.886 927.569 307.275 928.181 306.522 928.564C305.666 929 304.546 929 302.306 929Z" fill="black" fill-opacity="0.05"/>
<path d="M506.382 733.387C506.387 731.151 506.389 730.033 506.825 729.179C507.209 728.428 507.821 727.817 508.573 727.435C509.428 727 510.546 727 512.782 727H882.6C884.84 727 885.96 727 886.816 727.436C887.569 727.819 888.181 728.431 888.564 729.184C889 730.04 889 731.16 889 733.4V922.6C889 924.84 889 925.96 888.564 926.816C888.181 927.569 887.569 928.181 886.816 928.564C885.96 929 884.84 929 882.6 929H512.413C510.168 929 509.046 929 508.19 928.563C507.436 928.179 506.824 927.565 506.441 926.811C506.006 925.954 506.008 924.832 506.013 922.587L506.382 733.387Z" fill="black" fill-opacity="0.05"/>
<path d="M609 522.4C609 520.16 609 519.04 609.436 518.184C609.819 517.431 610.431 516.819 611.184 516.436C612.04 516 613.16 516 615.4 516H883.6C885.84 516 886.96 516 887.816 516.436C888.569 516.819 889.181 517.431 889.564 518.184C890 519.04 890 520.16 890 522.4V718.6C890 720.84 890 721.96 889.564 722.816C889.181 723.569 888.569 724.181 887.816 724.564C886.96 725 885.84 725 883.6 725H615.4C613.16 725 612.04 725 611.184 724.564C610.431 724.181 609.819 723.569 609.436 722.816C609 721.96 609 720.84 609 718.6V522.4Z" fill="black" fill-opacity="0.05"/>
<rect x="609" y="409" width="176" height="105" rx="4" fill="black" fill-opacity="0.05"/>
<rect x="347" y="97" width="123" height="289" rx="4" fill="black" fill-opacity="0.05"/>
<path d="M889 12.4V379.6C889 381.84 889 382.96 888.564 383.816C888.181 384.569 887.569 385.181 886.816 385.564C885.96 386 884.84 386 882.6 386H478.4C476.16 386 475.04 386 474.184 385.564C473.431 385.181 472.819 384.569 472.436 383.816C472 382.96 472 381.84 472 379.6V103.209C472 100.969 472 99.8485 472.436 98.9929C472.819 98.2402 473.431 97.6283 474.184 97.2448C475.04 96.8088 476.16 96.8088 478.4 96.8088H617.617C619.857 96.8088 620.977 96.8088 621.833 96.3728C622.585 95.9894 623.197 95.3774 623.581 94.6248C624.017 93.7691 624.017 92.649 624.017 90.4088V69.6794C624.017 67.4392 624.017 66.3191 624.453 65.4634C624.836 64.7108 625.448 64.0989 626.201 63.7154C627.056 63.2794 628.177 63.2794 630.417 63.2794H665.035C667.275 63.2794 668.395 63.2794 669.251 62.8434C670.003 62.4599 670.615 61.848 670.999 61.0954C671.435 60.2397 671.435 59.1196 671.435 56.8794V12.4C671.435 10.1598 671.435 9.03969 671.871 8.18404C672.254 7.43139 672.866 6.81947 673.619 6.43597C674.474 6 675.595 6 677.835 6H882.6C884.84 6 885.96 6 886.816 6.43597C887.569 6.81947 888.181 7.43139 888.564 8.18404C889 9.03969 889 10.1598 889 12.4Z" fill="#F15921" fill-opacity="0.2" stroke="#F15921"/>
<path d="M479.4 6.69824H561.6C562.731 6.69824 563.538 6.6984 564.17 6.75C564.716 6.79461 565.085 6.87478 565.378 7.00098L565.499 7.05762C566.043 7.33458 566.497 7.75629 566.814 8.27344L566.942 8.50098C567.102 8.81396 567.199 9.20634 567.25 9.83008C567.302 10.462 567.302 11.269 567.302 12.4004V58.5996C567.302 59.731 567.302 60.538 567.25 61.1699C567.205 61.7159 567.125 62.0847 566.999 62.3779L566.942 62.499C566.665 63.0426 566.244 63.4972 565.727 63.8145L565.499 63.9424C565.186 64.1018 564.794 64.199 564.17 64.25C563.538 64.3016 562.731 64.3018 561.6 64.3018H479.4C478.269 64.3018 477.462 64.3016 476.83 64.25C476.284 64.2054 475.915 64.1252 475.622 63.999L475.501 63.9424C474.957 63.6654 474.503 63.2437 474.186 62.7266L474.058 62.499C473.898 62.186 473.801 61.7936 473.75 61.1699C473.698 60.538 473.698 59.731 473.698 58.5996V12.4004C473.698 11.269 473.698 10.462 473.75 9.83008C473.795 9.28411 473.875 8.91532 474.001 8.62207L474.058 8.50098C474.335 7.95742 474.756 7.50279 475.273 7.18555L475.501 7.05762C475.814 6.89817 476.206 6.80096 476.83 6.75C477.462 6.6984 478.269 6.69824 479.4 6.69824Z" stroke="#CFCFCF" stroke-width="1.39626"/>
<path d="M510.922 22.2138C510.818 22.2558 510.724 22.3155 510.645 22.3899L510.64 22.3852L507.154 25.541L508.386 26.6566L510.385 24.8476V32.4102H512.128V24.8476L514.126 26.6566L515.359 25.541L511.873 22.3852C511.623 22.1595 511.248 22.0917 510.922 22.2138Z" fill="#1C1C1C"/>
<path d="M530.052 49.7862C530.156 49.7442 530.25 49.6845 530.329 49.6101L530.334 49.6148L533.821 46.459L532.588 45.3434L530.59 47.1524V39.5898H528.846V47.1524L526.848 45.3434L525.615 46.459L529.102 49.6148C529.351 49.8405 529.726 49.9083 530.052 49.7862Z" fill="#1C1C1C"/>
<path d="M531.32 21.1282C530.719 21.1282 530.231 21.6038 530.231 22.1904V27.5018H524.782C524.18 27.5018 523.692 27.9774 523.692 28.5641V32.8132H518.244C517.642 32.8132 517.154 33.2887 517.154 33.8754V38.1245H511.705C511.103 38.1245 510.615 38.6001 510.615 39.1868V43.4359H505.167C504.565 43.4359 504.077 43.9114 504.077 44.4981V49.8095C504.077 50.3962 504.565 50.8718 505.167 50.8718C505.768 50.8718 506.256 50.3962 506.256 49.8095V45.5604H511.705C512.307 45.5604 512.795 45.0848 512.795 44.4981V40.2491H518.244C518.845 40.2491 519.333 39.7735 519.333 39.1868V34.9377H524.782C525.384 34.9377 525.872 34.4621 525.872 33.8754V29.6263H531.32C531.922 29.6263 532.41 29.1507 532.41 28.5641V23.2527H537.859C538.461 23.2527 538.949 22.7771 538.949 22.1904C538.949 21.6038 538.461 21.1282 537.859 21.1282H531.32Z" fill="#1C1C1C"/>
<path d="M12.4004 412.698H120.6C121.731 412.698 122.538 412.698 123.17 412.75C123.716 412.795 124.085 412.875 124.378 413.001L124.499 413.058C125.043 413.335 125.497 413.756 125.814 414.273L125.942 414.501C126.102 414.814 126.199 415.206 126.25 415.83C126.302 416.462 126.302 417.269 126.302 418.4V489.6C126.302 490.731 126.302 491.538 126.25 492.17C126.205 492.716 126.125 493.085 125.999 493.378L125.942 493.499C125.665 494.043 125.244 494.497 124.727 494.814L124.499 494.942C124.186 495.102 123.794 495.199 123.17 495.25C122.538 495.302 121.731 495.302 120.6 495.302H12.4004C11.269 495.302 10.462 495.302 9.83008 495.25C9.28408 495.205 8.91533 495.125 8.62207 494.999L8.50098 494.942C7.9574 494.665 7.50279 494.244 7.18555 493.727L7.05762 493.499C6.89819 493.186 6.80096 492.794 6.75 492.17C6.6984 491.538 6.69824 490.731 6.69824 489.6V418.4C6.69824 417.269 6.6984 416.462 6.75 415.83C6.79461 415.284 6.87478 414.915 7.00098 414.622L7.05762 414.501C7.33457 413.957 7.7563 413.503 8.27344 413.186L8.50098 413.058C8.81396 412.898 9.20632 412.801 9.83008 412.75C10.462 412.698 11.269 412.698 12.4004 412.698Z" stroke="#CFCFCF" stroke-width="1.39626"/>
<path d="M793.4 409.698H882.6C883.731 409.698 884.538 409.698 885.17 409.75C885.716 409.795 886.085 409.875 886.378 410.001L886.499 410.058C887.043 410.335 887.497 410.756 887.814 411.273L887.942 411.501C888.102 411.814 888.199 412.206 888.25 412.83C888.302 413.462 888.302 414.269 888.302 415.4V507.6C888.302 508.731 888.302 509.538 888.25 510.17C888.205 510.716 888.125 511.085 887.999 511.378L887.942 511.499C887.665 512.043 887.244 512.497 886.727 512.814L886.499 512.942C886.186 513.102 885.794 513.199 885.17 513.25C884.538 513.302 883.731 513.302 882.6 513.302H793.4C792.269 513.302 791.462 513.302 790.83 513.25C790.284 513.205 789.915 513.125 789.622 512.999L789.501 512.942C788.957 512.665 788.503 512.244 788.186 511.727L788.058 511.499C787.898 511.186 787.801 510.794 787.75 510.17C787.698 509.538 787.698 508.731 787.698 507.6V415.4C787.698 414.269 787.698 413.462 787.75 412.83C787.795 412.284 787.875 411.915 788.001 411.622L788.058 411.501C788.335 410.957 788.756 410.503 789.273 410.186L789.501 410.058C789.814 409.898 790.206 409.801 790.83 409.75C791.462 409.698 792.269 409.698 793.4 409.698Z" stroke="#CFCFCF" stroke-width="1.39626"/>
<path d="M827.922 448.214C827.818 448.256 827.724 448.316 827.645 448.39L827.64 448.385L824.154 451.541L825.386 452.657L827.385 450.848V458.41H829.128V450.848L831.126 452.657L832.359 451.541L828.873 448.385C828.623 448.159 828.248 448.092 827.922 448.214Z" fill="#1C1C1C"/>
<path d="M847.052 475.786C847.156 475.744 847.25 475.684 847.329 475.61L847.334 475.615L850.821 472.459L849.588 471.343L847.59 473.152V465.59H845.846V473.152L843.848 471.343L842.615 472.459L846.102 475.615C846.351 475.841 846.726 475.908 847.052 475.786Z" fill="#1C1C1C"/>
<path d="M848.32 447.128C847.719 447.128 847.231 447.604 847.231 448.19V453.502H841.782C841.18 453.502 840.692 453.977 840.692 454.564V458.813H835.244C834.642 458.813 834.154 459.289 834.154 459.875V464.125H828.705C828.103 464.125 827.615 464.6 827.615 465.187V469.436H822.167C821.565 469.436 821.077 469.911 821.077 470.498V475.809C821.077 476.396 821.565 476.872 822.167 476.872C822.768 476.872 823.256 476.396 823.256 475.809V471.56H828.705C829.307 471.56 829.795 471.085 829.795 470.498V466.249H835.244C835.845 466.249 836.333 465.773 836.333 465.187V460.938H841.782C842.384 460.938 842.872 460.462 842.872 459.875V455.626H848.32C848.922 455.626 849.41 455.151 849.41 454.564V449.253H854.859C855.461 449.253 855.949 448.777 855.949 448.19C855.949 447.604 855.461 447.128 854.859 447.128H848.32Z" fill="#1C1C1C"/>
<path d="M56.9223 440.214C56.8185 440.256 56.7244 440.316 56.6452 440.39L56.6401 440.385L53.1538 443.541L54.3863 444.657L56.3848 442.848V450.41H58.128V442.848L60.1265 444.657L61.3589 443.541L57.8726 440.385C57.6232 440.159 57.2483 440.092 56.9223 440.214Z" fill="#1C1C1C"/>
<path d="M76.0521 467.786C76.1559 467.744 76.25 467.684 76.3291 467.61L76.3342 467.615L79.8206 464.459L78.5881 463.343L76.5896 465.152V457.59H74.8464V465.152L72.8479 463.343L71.6154 464.459L75.1018 467.615C75.3511 467.841 75.7261 467.908 76.0521 467.786Z" fill="#1C1C1C"/>
<path d="M77.3205 439.128C76.7186 439.128 76.2308 439.604 76.2308 440.19V445.502H70.782C70.1802 445.502 69.6923 445.977 69.6923 446.564V450.813H64.2436C63.6417 450.813 63.1538 451.289 63.1538 451.875V456.125H57.7051C57.1033 456.125 56.6154 456.6 56.6154 457.187V461.436H51.1666C50.5648 461.436 50.0769 461.911 50.0769 462.498V467.809C50.0769 468.396 50.5648 468.872 51.1666 468.872C51.7685 468.872 52.2564 468.396 52.2564 467.809V463.56H57.7051C58.307 463.56 58.7949 463.085 58.7949 462.498V458.249H64.2436C64.8454 458.249 65.3333 457.773 65.3333 457.187V452.938H70.782C71.3839 452.938 71.8718 452.462 71.8718 451.875V447.626H77.3205C77.9224 447.626 78.4102 447.151 78.4102 446.564V441.253H83.859C84.4608 441.253 84.9487 440.777 84.9487 440.19C84.9487 439.604 84.4608 439.128 83.859 439.128H77.3205Z" fill="#1C1C1C"/>
<path d="M317.4 849.698H337.6C338.731 849.698 339.538 849.698 340.17 849.75C340.716 849.795 341.085 849.875 341.378 850.001L341.499 850.058C342.043 850.335 342.497 850.756 342.814 851.273L342.942 851.501C343.102 851.814 343.199 852.206 343.25 852.83C343.302 853.462 343.302 854.269 343.302 855.4V922.6C343.302 923.731 343.302 924.538 343.25 925.17C343.205 925.716 343.125 926.085 342.999 926.378L342.942 926.499C342.665 927.043 342.244 927.497 341.727 927.814L341.499 927.942C341.186 928.102 340.794 928.199 340.17 928.25C339.538 928.302 338.731 928.302 337.6 928.302H317.4C316.269 928.302 315.462 928.302 314.83 928.25C314.284 928.205 313.915 928.125 313.622 927.999L313.501 927.942C312.957 927.665 312.503 927.244 312.186 926.727L312.058 926.499C311.898 926.186 311.801 925.794 311.75 925.17C311.698 924.538 311.698 923.731 311.698 922.6V855.4L311.705 853.928C311.712 853.506 311.724 853.146 311.75 852.83C311.795 852.284 311.875 851.915 312.001 851.622L312.058 851.501C312.335 850.957 312.756 850.503 313.273 850.186L313.501 850.058C313.814 849.898 314.206 849.801 314.83 849.75C315.462 849.698 316.269 849.698 317.4 849.698Z" stroke="#CFCFCF" stroke-width="1.39626"/>
<path d="M320.523 878.907C320.449 878.939 320.383 878.984 320.327 879.04L320.324 879.036L317.862 881.413L318.732 882.253L320.143 880.891V886.586H321.374V880.891L322.785 882.253L323.655 881.413L321.194 879.036C321.018 878.866 320.753 878.815 320.523 878.907Z" fill="#1C1C1C"/>
<path d="M334.512 899.093C334.585 899.061 334.651 899.016 334.707 898.96L334.711 898.964L337.172 896.587L336.302 895.747L334.891 897.109V891.414H333.66V897.109L332.249 895.747L331.379 896.587L333.841 898.964C334.017 899.134 334.282 899.185 334.512 899.093Z" fill="#1C1C1C"/>
<path d="M334.789 878.862C334.372 878.862 334.034 879.202 334.034 879.621V883.414H330.263C329.846 883.414 329.508 883.753 329.508 884.172V887.207H325.737C325.32 887.207 324.983 887.547 324.983 887.966V891H321.211C320.794 891 320.457 891.34 320.457 891.759V894.793H316.685C316.269 894.793 315.931 895.133 315.931 895.552V899.345C315.931 899.764 316.269 900.103 316.685 900.103C317.102 900.103 317.44 899.764 317.44 899.345V896.31H321.211C321.628 896.31 321.965 895.971 321.965 895.552V892.517H325.737C326.154 892.517 326.491 892.178 326.491 891.759V888.724H330.263C330.679 888.724 331.017 888.384 331.017 887.966V884.931H334.789C335.205 884.931 335.543 884.591 335.543 884.172V880.379H339.315C339.731 880.379 340.069 880.04 340.069 879.621C340.069 879.202 339.731 878.862 339.315 878.862H334.789Z" fill="#1C1C1C"/>
<path d="M630.4 6.69824H662.6C663.731 6.69824 664.538 6.6984 665.17 6.75C665.716 6.79461 666.085 6.87478 666.378 7.00098L666.499 7.05762C667.043 7.33458 667.497 7.75629 667.814 8.27344L667.942 8.50098C668.102 8.81396 668.199 9.20634 668.25 9.83008C668.302 10.462 668.302 11.269 668.302 12.4004V54.5996C668.302 55.731 668.302 56.538 668.25 57.1699C668.205 57.7159 668.125 58.0847 667.999 58.3779L667.942 58.499C667.665 59.0426 667.244 59.4972 666.727 59.8145L666.499 59.9424C666.186 60.1018 665.794 60.199 665.17 60.25C664.538 60.3016 663.731 60.3018 662.6 60.3018H630.4C629.269 60.3018 628.462 60.3016 627.83 60.25C627.284 60.2054 626.915 60.1252 626.622 59.999L626.501 59.9424C625.957 59.6654 625.503 59.2437 625.186 58.7266L625.058 58.499C624.898 58.186 624.801 57.7936 624.75 57.1699C624.698 56.538 624.698 55.731 624.698 54.5996V12.4004C624.698 11.269 624.698 10.462 624.75 9.83008C624.795 9.2841 624.875 8.91532 625.001 8.62207L625.058 8.50098C625.335 7.95741 625.756 7.50279 626.273 7.18555L626.501 7.05762C626.814 6.89818 627.206 6.80096 627.83 6.75C628.462 6.6984 629.269 6.69824 630.4 6.69824Z" stroke="#CFCFCF" stroke-width="1.39626"/>
<path d="M6 504.4C6 502.16 6 501.04 6.43597 500.184C6.81947 499.431 7.43139 498.819 8.18404 498.436C9.03969 498 10.1598 498 12.4 498H193.6C195.84 498 196.96 498 197.816 498.436C198.569 498.819 199.181 499.431 199.564 500.184C200 501.04 200 502.16 200 504.4V704.6C200 706.84 200 707.96 199.564 708.816C199.181 709.569 198.569 710.181 197.816 710.564C196.96 711 195.84 711 193.6 711H12.4C10.1598 711 9.03969 711 8.18404 710.564C7.43139 710.181 6.81947 709.569 6.43597 708.816C6 707.96 6 706.84 6 704.6V504.4Z" fill="black" fill-opacity="0.05"/>
<path d="M248.4 496.698H562.6C563.731 496.698 564.538 496.698 565.17 496.75C565.716 496.795 566.085 496.875 566.378 497.001L566.499 497.058C567.043 497.335 567.497 497.756 567.814 498.273L567.942 498.501C568.102 498.814 568.199 499.206 568.25 499.83C568.302 500.462 568.302 501.269 568.302 502.4V659.6C568.302 660.731 568.302 661.538 568.25 662.17C568.205 662.716 568.125 663.085 567.999 663.378L567.942 663.499C567.665 664.043 567.244 664.497 566.727 664.814L566.499 664.942C566.186 665.102 565.794 665.199 565.17 665.25C564.538 665.302 563.731 665.302 562.6 665.302H436.527C435.396 665.302 434.589 665.302 433.957 665.25C433.411 665.205 433.043 665.125 432.75 664.999L432.629 664.942C432.085 664.665 431.631 664.244 431.313 663.727L431.186 663.499C431.026 663.186 430.929 662.794 430.878 662.17C430.826 661.538 430.826 660.731 430.826 659.6V625.48C430.826 624.372 430.826 623.498 430.769 622.796C430.718 622.175 430.619 621.641 430.41 621.153L430.313 620.947C429.919 620.174 429.32 619.527 428.584 619.075L428.261 618.894C427.718 618.617 427.122 618.497 426.412 618.438C425.71 618.381 424.836 618.382 423.728 618.382H361.276C360.168 618.382 359.295 618.381 358.593 618.438C357.971 618.489 357.437 618.589 356.95 618.798L356.744 618.894C355.971 619.288 355.323 619.888 354.872 620.624L354.69 620.947C354.414 621.49 354.293 622.086 354.235 622.796C354.178 623.498 354.179 624.372 354.179 625.48V659.6C354.179 660.731 354.178 661.538 354.126 662.17C354.081 662.716 354.001 663.085 353.875 663.378L353.818 663.499C353.541 664.043 353.12 664.497 352.603 664.814L352.376 664.942C352.063 665.102 351.671 665.199 351.047 665.25C350.415 665.302 349.608 665.302 348.477 665.302H248.4C247.269 665.302 246.462 665.302 245.83 665.25C245.284 665.205 244.915 665.125 244.622 664.999L244.501 664.942C243.957 664.665 243.503 664.244 243.186 663.727L243.058 663.499C242.898 663.186 242.801 662.794 242.75 662.17C242.698 661.538 242.698 660.731 242.698 659.6V502.4C242.698 501.269 242.698 500.462 242.75 499.83C242.795 499.284 242.875 498.915 243.001 498.622L243.058 498.501C243.335 497.957 243.756 497.503 244.273 497.186L244.501 497.058C244.814 496.898 245.206 496.801 245.83 496.75C246.462 496.698 247.269 496.698 248.4 496.698Z" stroke="#CFCFCF" stroke-width="1.39626"/>
<rect x="357.698" y="621.698" width="69.6037" height="43.6037" rx="3.30187" stroke="#CFCFCF" stroke-width="1.39626"/>
<path d="M378.004 633.89L382.148 639.43C382.49 639.886 382.165 640.538 381.596 640.538H373.307C372.738 640.538 372.413 639.886 372.755 639.43L376.899 633.89C377.175 633.521 377.728 633.521 378.004 633.89ZM374.689 639.153H380.214L377.451 635.46L374.689 639.153ZM378.004 654.11C377.728 654.48 377.175 654.48 376.899 654.11L372.755 648.57C372.413 648.114 372.738 647.462 373.307 647.462H381.596C382.165 647.462 382.49 648.114 382.148 648.57L378.004 654.11ZM374.689 648.847L377.451 652.541L380.214 648.847H374.689ZM366.4 644.693C366.019 644.693 365.709 644.383 365.709 644C365.709 643.618 366.019 643.308 366.4 643.308H388.503C388.884 643.308 389.193 643.618 389.193 644C389.193 644.383 388.884 644.693 388.503 644.693H366.4Z" fill="black"/>
<path d="M409.004 633.89L413.148 639.43C413.49 639.886 413.165 640.538 412.596 640.538H404.307C403.738 640.538 403.413 639.886 403.755 639.43L407.899 633.89C408.175 633.521 408.728 633.521 409.004 633.89ZM405.689 639.153H411.214L408.452 635.46L405.689 639.153ZM409.004 654.11C408.728 654.48 408.175 654.48 407.899 654.11L403.755 648.57C403.413 648.114 403.738 647.462 404.307 647.462H412.596C413.165 647.462 413.49 648.114 413.148 648.57L409.004 654.11ZM405.689 648.847L408.452 652.541L411.214 648.847H405.689ZM397.4 644.693C397.019 644.693 396.71 644.383 396.71 644C396.71 643.618 397.019 643.308 397.4 643.308H419.503C419.884 643.308 420.194 643.618 420.194 644C420.194 644.383 419.884 644.693 419.503 644.693H397.4Z" fill="black"/>
<rect x="475.698" y="500.698" width="37.6037" height="160.604" rx="3.30187" stroke="#CFCFCF" stroke-width="1.39626"/>
<rect x="516.698" y="500.698" width="37.6037" height="160.604" rx="3.30187" stroke="#CFCFCF" stroke-width="1.39626"/>
<path d="M546.911 571.667H540.158C539.957 571.667 539.765 571.744 539.623 571.881L529.111 582.083H525.089C524.672 582.083 524.333 582.413 524.333 582.819V588.431C524.333 588.838 524.672 589.167 525.089 589.167H531.842C532.042 589.167 532.234 589.089 532.376 588.952L542.889 578.75H546.911C547.328 578.75 547.667 578.421 547.667 578.015V572.402C547.667 571.996 547.328 571.667 546.911 571.667ZM546.155 577.279H542.577C542.377 577.279 542.185 577.357 542.043 577.494L531.53 587.696H525.845V583.554H529.423C529.624 583.554 529.816 583.477 529.957 583.339L540.47 573.137H546.155V577.279Z" fill="#1C1C1C"/>
<path d="M529 575.167C527.07 575.167 525.5 576.689 525.5 578.561V582.167H526.958V578.561C526.958 577.469 527.874 576.581 529 576.581C530.126 576.581 531.042 577.469 531.042 578.561V580.305H532.5V578.561C532.5 576.689 530.93 575.167 529 575.167Z" fill="#1C1C1C"/>
<path d="M528.417 569.333C526.808 569.333 525.5 570.642 525.5 572.25C525.5 573.858 526.808 575.167 528.417 575.167C530.025 575.167 531.333 573.858 531.333 572.25C531.333 570.642 530.025 569.333 528.417 569.333ZM528.417 573.696C527.619 573.696 526.971 573.047 526.971 572.25C526.971 571.452 527.619 570.804 528.417 570.804C529.214 570.804 529.863 571.452 529.863 572.25C529.863 573.047 529.214 573.696 528.417 573.696Z" fill="#1C1C1C"/>
<path d="M539.31 584.541C539.251 584.57 539.198 584.61 539.153 584.661L539.15 584.658L537.167 586.812L537.868 587.573L539.004 586.338V591.5H539.996V586.338L541.132 587.573L541.833 586.812L539.851 584.658C539.709 584.504 539.495 584.458 539.31 584.541Z" fill="#1C1C1C"/>
<path d="M545.523 591.459C545.582 591.43 545.636 591.39 545.681 591.339L545.684 591.342L547.667 589.188L546.966 588.427L545.829 589.662V584.5H544.838V589.662L543.701 588.427L543 589.188L544.983 591.342C545.125 591.496 545.338 591.542 545.523 591.459Z" fill="#1C1C1C"/>
<path d="M505.911 571.667H499.158C498.957 571.667 498.765 571.744 498.623 571.881L488.111 582.083H484.089C483.672 582.083 483.333 582.413 483.333 582.819V588.431C483.333 588.838 483.672 589.167 484.089 589.167H490.842C491.042 589.167 491.234 589.089 491.376 588.952L501.889 578.75H505.911C506.328 578.75 506.667 578.421 506.667 578.015V572.402C506.667 571.996 506.328 571.667 505.911 571.667ZM505.155 577.279H501.577C501.377 577.279 501.185 577.357 501.043 577.494L490.53 587.696H484.845V583.554H488.423C488.624 583.554 488.816 583.477 488.957 583.339L499.47 573.137H505.155V577.279Z" fill="#1C1C1C"/>
<path d="M488 575.167C486.07 575.167 484.5 576.689 484.5 578.561V582.167H485.958V578.561C485.958 577.469 486.874 576.581 488 576.581C489.126 576.581 490.042 577.469 490.042 578.561V580.305H491.5V578.561C491.5 576.689 489.93 575.167 488 575.167Z" fill="#1C1C1C"/>
<path d="M487.417 569.333C485.808 569.333 484.5 570.642 484.5 572.25C484.5 573.858 485.808 575.167 487.417 575.167C489.025 575.167 490.333 573.858 490.333 572.25C490.333 570.642 489.025 569.333 487.417 569.333ZM487.417 573.696C486.619 573.696 485.971 573.047 485.971 572.25C485.971 571.452 486.619 570.804 487.417 570.804C488.214 570.804 488.863 571.452 488.863 572.25C488.863 573.047 488.214 573.696 487.417 573.696Z" fill="#1C1C1C"/>
<path d="M498.31 584.541C498.251 584.57 498.198 584.61 498.153 584.661L498.15 584.658L496.167 586.812L496.868 587.573L498.004 586.338V591.5H498.996V586.338L500.132 587.573L500.833 586.812L498.851 584.658C498.709 584.504 498.495 584.458 498.31 584.541Z" fill="#1C1C1C"/>
<path d="M504.523 591.459C504.582 591.43 504.636 591.39 504.681 591.339L504.684 591.342L506.667 589.188L505.966 588.427L504.829 589.662V584.5H503.838V589.662L502.701 588.427L502 589.188L503.983 591.342C504.125 591.496 504.338 591.542 504.523 591.459Z" fill="#1C1C1C"/>
<path d="M123.7 202V187.8H133.08V189.4H125.5V194.14H131.88V195.64H125.5V202H123.7ZM141.22 202.1C140.087 202.1 139.133 201.907 138.36 201.52C137.587 201.12 136.967 200.587 136.5 199.92C136.033 199.24 135.693 198.473 135.48 197.62C135.267 196.767 135.16 195.887 135.16 194.98V187.8H136.96V194.98C136.96 195.673 137.027 196.353 137.16 197.02C137.307 197.673 137.54 198.26 137.86 198.78C138.18 199.3 138.613 199.713 139.16 200.02C139.707 200.327 140.387 200.48 141.2 200.48C142.027 200.48 142.713 200.327 143.26 200.02C143.807 199.7 144.24 199.28 144.56 198.76C144.88 198.227 145.107 197.633 145.24 196.98C145.387 196.327 145.46 195.66 145.46 194.98V187.8H147.26V194.98C147.26 195.94 147.147 196.853 146.92 197.72C146.707 198.573 146.36 199.327 145.88 199.98C145.4 200.633 144.773 201.153 144 201.54C143.24 201.913 142.313 202.1 141.22 202.1ZM152.258 191.12V202H150.458V187.8H151.978L160.658 198.9V187.82H162.458V202H160.818L152.258 191.12ZM170.907 202V187.8H175.827C177.347 187.8 178.614 188.12 179.627 188.76C180.654 189.387 181.42 190.24 181.927 191.32C182.434 192.387 182.687 193.573 182.687 194.88C182.687 196.32 182.407 197.573 181.847 198.64C181.287 199.707 180.494 200.533 179.467 201.12C178.44 201.707 177.227 202 175.827 202H170.907ZM180.867 194.88C180.867 193.813 180.667 192.867 180.267 192.04C179.88 191.213 179.314 190.567 178.567 190.1C177.82 189.633 176.907 189.4 175.827 189.4H172.707V200.4H175.827C176.92 200.4 177.84 200.16 178.587 199.68C179.334 199.187 179.9 198.527 180.287 197.7C180.674 196.86 180.867 195.92 180.867 194.88ZM189.036 187.8H190.556L196.356 202H194.436L192.756 197.84H186.796L185.136 202H183.216L189.036 187.8ZM192.356 196.44L189.796 189.88L187.156 196.44H192.356ZM197.228 187.8L201.528 195.2L205.868 187.8H207.828L202.428 196.82V202H200.628V196.78L195.248 187.8H197.228Z" fill="#1C1C1C"/>
<path d="M137.85 458V450.9H143.33V458H142.43V451.7H138.75V458H137.85ZM145.028 458V450.9H147.988C148.301 450.9 148.588 450.967 148.848 451.1C149.108 451.227 149.334 451.4 149.528 451.62C149.721 451.833 149.871 452.077 149.978 452.35C150.084 452.617 150.138 452.89 150.138 453.17C150.138 453.557 150.051 453.927 149.878 454.28C149.704 454.627 149.461 454.91 149.148 455.13C148.834 455.343 148.468 455.45 148.048 455.45H145.928V458H145.028ZM145.928 454.65H147.998C148.244 454.65 148.458 454.583 148.638 454.45C148.824 454.317 148.968 454.137 149.068 453.91C149.174 453.683 149.228 453.437 149.228 453.17C149.228 452.89 149.168 452.64 149.048 452.42C148.928 452.193 148.771 452.017 148.578 451.89C148.384 451.763 148.171 451.7 147.938 451.7H145.928V454.65ZM152.91 450.9H153.67L156.57 458H155.61L154.77 455.92H151.79L150.96 458H150L152.91 450.9ZM154.57 455.22L153.29 451.94L151.97 455.22H154.57ZM159.409 458.08C158.896 458.08 158.433 457.973 158.019 457.76C157.613 457.54 157.293 457.237 157.059 456.85L157.749 456.43C157.916 456.71 158.139 456.93 158.419 457.09C158.699 457.243 159.023 457.32 159.389 457.32C159.876 457.32 160.253 457.2 160.519 456.96C160.793 456.72 160.929 456.4 160.929 456C160.929 455.747 160.873 455.523 160.759 455.33C160.646 455.13 160.483 454.977 160.269 454.87C160.056 454.757 159.796 454.7 159.489 454.7H158.759V453.99H159.499C159.739 453.99 159.946 453.94 160.119 453.84C160.299 453.733 160.436 453.593 160.529 453.42C160.629 453.24 160.679 453.04 160.679 452.82C160.679 452.587 160.626 452.383 160.519 452.21C160.413 452.03 160.259 451.89 160.059 451.79C159.866 451.69 159.633 451.64 159.359 451.64C159.013 451.64 158.709 451.717 158.449 451.87C158.189 452.017 157.986 452.22 157.839 452.48L157.179 452.03C157.406 451.657 157.703 451.363 158.069 451.15C158.436 450.93 158.879 450.82 159.399 450.82C159.833 450.82 160.209 450.897 160.529 451.05C160.849 451.203 161.099 451.42 161.279 451.7C161.459 451.98 161.549 452.313 161.549 452.7C161.549 453.047 161.463 453.367 161.289 453.66C161.123 453.947 160.873 454.163 160.539 454.31C160.953 454.423 161.273 454.64 161.499 454.96C161.726 455.28 161.839 455.653 161.839 456.08C161.839 456.5 161.733 456.86 161.519 457.16C161.313 457.46 161.026 457.69 160.659 457.85C160.299 458.003 159.883 458.08 159.409 458.08ZM162.448 459.36V457.2H162.768C162.954 457.2 163.118 457.127 163.258 456.98C163.398 456.827 163.518 456.587 163.618 456.26C163.718 455.927 163.798 455.483 163.858 454.93C163.918 454.377 163.961 453.693 163.988 452.88L164.038 450.9H168.438V457.2H169.318V459.36H168.518V458H163.248V459.36H162.448ZM163.968 457.2H167.538V451.7H164.868L164.838 452.99C164.818 453.83 164.774 454.533 164.708 455.1C164.641 455.667 164.548 456.12 164.428 456.46C164.308 456.8 164.154 457.047 163.968 457.2ZM176.226 450.9V458H175.326V454.77H171.416V458H170.516V450.9H171.416V453.97H175.326V450.9H176.226ZM177.978 458V450.9H178.878V456.75L182.988 450.9H183.828V458H182.928V452.26L178.868 458H177.978ZM185.575 458V450.9H186.475V453.97H187.425L189.765 450.9H190.805L188.165 454.34L190.985 458H189.885L187.445 454.79H186.475V458H185.575Z" fill="#1C1C1C"/>
<path d="M402 178.7H416.18V180.5H408.34L416.2 187.82V189.76L409.94 184.06L402 190.08V188.06L408.86 182.92L406.34 180.5H402V178.7ZM402 191.747H416.2V193.547H403.6V201.467H402V191.747ZM401.9 208.779C401.9 207.645 402.093 206.692 402.48 205.919C402.88 205.145 403.413 204.525 404.08 204.059C404.76 203.592 405.527 203.252 406.38 203.039C407.233 202.825 408.113 202.719 409.02 202.719H416.2V204.519H409.02C408.327 204.519 407.647 204.585 406.98 204.719C406.327 204.865 405.74 205.099 405.22 205.419C404.7 205.739 404.287 206.172 403.98 206.719C403.673 207.265 403.52 207.945 403.52 208.759C403.52 209.585 403.673 210.272 403.98 210.819C404.3 211.365 404.72 211.799 405.24 212.119C405.773 212.439 406.367 212.665 407.02 212.799C407.673 212.945 408.34 213.019 409.02 213.019H416.2V214.819H409.02C408.06 214.819 407.147 214.705 406.28 214.479C405.427 214.265 404.673 213.919 404.02 213.439C403.367 212.959 402.847 212.332 402.46 211.559C402.087 210.799 401.9 209.872 401.9 208.779ZM405.66 228.916C404.927 228.916 404.287 228.73 403.74 228.356C403.193 227.983 402.767 227.476 402.46 226.836C402.153 226.21 402 225.516 402 224.756V218.016H416.2V225.076C416.2 225.743 416.02 226.316 415.66 226.796C415.313 227.29 414.86 227.663 414.3 227.916C413.753 228.183 413.18 228.316 412.58 228.316C411.887 228.316 411.233 228.136 410.62 227.776C410.02 227.43 409.573 226.93 409.28 226.276C409.04 227.09 408.593 227.73 407.94 228.196C407.3 228.676 406.54 228.916 405.66 228.916ZM405.98 227.096C406.42 227.096 406.827 226.996 407.2 226.796C407.573 226.61 407.873 226.35 408.1 226.016C408.327 225.696 408.44 225.323 408.44 224.896V219.816H403.56V224.756C403.56 225.196 403.673 225.59 403.9 225.936C404.127 226.296 404.42 226.576 404.78 226.776C405.153 226.99 405.553 227.096 405.98 227.096ZM414.64 219.816H409.9V224.336C409.9 224.763 410.007 225.136 410.22 225.456C410.433 225.79 410.72 226.05 411.08 226.236C411.44 226.436 411.833 226.536 412.26 226.536C412.713 226.536 413.113 226.443 413.46 226.256C413.82 226.083 414.107 225.836 414.32 225.516C414.533 225.21 414.64 224.856 414.64 224.456V219.816ZM412.88 233.234H402V231.434H416.2V232.954L405.1 241.634H416.18V243.434H402V241.794L412.88 233.234ZM409.2 245.905C410.067 245.905 410.913 246.052 411.74 246.345C412.58 246.652 413.34 247.092 414.02 247.665C414.713 248.252 415.26 248.965 415.66 249.805C416.073 250.645 416.28 251.598 416.28 252.665C416.28 253.932 415.987 255.018 415.4 255.925C414.827 256.832 414.087 257.505 413.18 257.945L412.26 256.525C412.86 256.245 413.333 255.885 413.68 255.445C414.04 255.018 414.293 254.552 414.44 254.045C414.587 253.552 414.66 253.065 414.66 252.585C414.66 251.798 414.5 251.098 414.18 250.485C413.86 249.885 413.433 249.378 412.9 248.965C412.367 248.552 411.767 248.238 411.1 248.025C410.447 247.825 409.787 247.725 409.12 247.725C408.387 247.725 407.68 247.845 407 248.085C406.32 248.338 405.72 248.685 405.2 249.125C404.68 249.565 404.267 250.085 403.96 250.685C403.653 251.285 403.5 251.938 403.5 252.645C403.5 253.138 403.587 253.645 403.76 254.165C403.933 254.685 404.2 255.172 404.56 255.625C404.933 256.078 405.413 256.438 406 256.705L405.18 258.205C404.473 257.912 403.873 257.458 403.38 256.845C402.887 256.232 402.513 255.545 402.26 254.785C402.007 254.038 401.88 253.298 401.88 252.565C401.88 251.592 402.087 250.698 402.5 249.885C402.927 249.072 403.487 248.365 404.18 247.765C404.887 247.178 405.673 246.718 406.54 246.385C407.42 246.065 408.307 245.905 409.2 245.905ZM402 260.458H416.2V262.258H402V260.458ZM416.2 277.073H402V275.273H408.46V267.453H402V265.653H416.2V267.453H410.06V275.273H416.2V277.073ZM402 280.477H416.18V282.277H408.34L416.2 289.597V291.537L409.94 285.837L402 291.857V289.837L408.86 284.697L406.34 282.277H402V280.477ZM416.2 297.844V299.364L402 305.164V303.244L406.16 301.564V295.604L402 293.944V292.024L416.2 297.844ZM407.56 301.164L414.12 298.604L407.56 295.964V301.164Z" fill="#1C1C1C"/>
<path d="M618.4 203.1C617.467 203.1 616.593 202.9 615.78 202.5C614.98 202.087 614.28 201.54 613.68 200.86C613.08 200.167 612.613 199.393 612.28 198.54C611.947 197.673 611.78 196.78 611.78 195.86C611.78 194.9 611.947 193.993 612.28 193.14C612.613 192.273 613.073 191.507 613.66 190.84C614.26 190.173 614.96 189.653 615.76 189.28C616.573 188.893 617.453 188.7 618.4 188.7C619.773 188.7 620.907 188.987 621.8 189.56C622.693 190.133 623.367 190.88 623.82 191.8L622.44 192.76C622.027 191.933 621.46 191.32 620.74 190.92C620.02 190.52 619.227 190.32 618.36 190.32C617.64 190.32 616.987 190.473 616.4 190.78C615.813 191.087 615.307 191.507 614.88 192.04C614.467 192.56 614.147 193.153 613.92 193.82C613.707 194.487 613.6 195.18 613.6 195.9C613.6 196.66 613.72 197.38 613.96 198.06C614.213 198.727 614.567 199.32 615.02 199.84C615.473 200.347 616 200.747 616.6 201.04C617.2 201.333 617.847 201.48 618.54 201.48C619.353 201.48 620.127 201.273 620.86 200.86C621.593 200.447 622.287 199.813 622.94 198.96V200.82C621.66 202.34 620.147 203.1 618.4 203.1ZM622.72 197.28H619.66V195.92H624.24V203H622.72V197.28ZM626.977 203V188.8H628.777V201.4H636.697V203H626.977ZM643.987 203.1C642.987 203.1 642.081 202.9 641.267 202.5C640.454 202.1 639.747 201.56 639.147 200.88C638.561 200.187 638.107 199.413 637.787 198.56C637.467 197.693 637.307 196.807 637.307 195.9C637.307 194.953 637.474 194.053 637.807 193.2C638.154 192.333 638.627 191.567 639.227 190.9C639.841 190.22 640.554 189.687 641.367 189.3C642.181 188.9 643.067 188.7 644.027 188.7C645.027 188.7 645.934 188.907 646.747 189.32C647.561 189.733 648.261 190.287 648.847 190.98C649.434 191.673 649.887 192.447 650.207 193.3C650.527 194.153 650.687 195.027 650.687 195.92C650.687 196.867 650.521 197.773 650.187 198.64C649.854 199.493 649.381 200.26 648.767 200.94C648.167 201.607 647.461 202.133 646.647 202.52C645.834 202.907 644.947 203.1 643.987 203.1ZM639.127 195.9C639.127 196.62 639.241 197.32 639.467 198C639.707 198.667 640.041 199.26 640.467 199.78C640.894 200.3 641.407 200.713 642.007 201.02C642.607 201.327 643.274 201.48 644.007 201.48C644.767 201.48 645.447 201.32 646.047 201C646.647 200.68 647.154 200.253 647.567 199.72C647.994 199.187 648.314 198.587 648.527 197.92C648.754 197.253 648.867 196.58 648.867 195.9C648.867 195.18 648.747 194.487 648.507 193.82C648.281 193.153 647.947 192.56 647.507 192.04C647.081 191.507 646.567 191.093 645.967 190.8C645.381 190.493 644.727 190.34 644.007 190.34C643.247 190.34 642.567 190.5 641.967 190.82C641.367 191.127 640.854 191.547 640.427 192.08C640.014 192.613 639.694 193.213 639.467 193.88C639.241 194.533 639.127 195.207 639.127 195.9ZM653.188 203V188.8H659.268C659.895 188.8 660.468 188.933 660.988 189.2C661.508 189.453 661.962 189.8 662.348 190.24C662.735 190.667 663.035 191.153 663.248 191.7C663.462 192.233 663.568 192.78 663.568 193.34C663.568 193.993 663.442 194.613 663.188 195.2C662.948 195.787 662.602 196.287 662.148 196.7C661.708 197.113 661.188 197.4 660.588 197.56L664.028 203H661.988L658.748 197.9H654.988V203H653.188ZM654.988 196.3H659.288C659.782 196.3 660.208 196.167 660.568 195.9C660.942 195.62 661.228 195.253 661.428 194.8C661.642 194.347 661.748 193.86 661.748 193.34C661.748 192.807 661.628 192.32 661.388 191.88C661.148 191.427 660.835 191.067 660.448 190.8C660.062 190.533 659.635 190.4 659.168 190.4H654.988V196.3ZM666.333 203V188.8H668.133V203H666.333ZM675.848 188.8H677.368L683.168 203H681.248L679.568 198.84H673.608L671.948 203H670.028L675.848 188.8ZM679.168 197.44L676.608 190.88L673.968 197.44H679.168ZM687.95 200.88C688.203 201.053 688.55 201.22 688.99 201.38C689.443 201.527 689.977 201.6 690.59 201.6C691.217 201.6 691.73 201.5 692.13 201.3C692.53 201.087 692.837 200.773 693.05 200.36C693.263 199.933 693.41 199.393 693.49 198.74C693.57 198.087 693.61 197.313 693.61 196.42V188.8H695.41V196.02C695.41 197.073 695.357 198.04 695.25 198.92C695.143 199.8 694.93 200.567 694.61 201.22C694.29 201.86 693.81 202.353 693.17 202.7C692.543 203.047 691.703 203.22 690.65 203.22C689.983 203.22 689.397 203.147 688.89 203C688.383 202.853 687.917 202.633 687.49 202.34L687.95 200.88ZM708.297 201.4V203H698.657V188.8H708.117V190.4H700.457V195H707.117V196.5H700.457V201.4H708.297ZM715.086 188.8H716.606L722.406 203H720.486L718.806 198.84H712.846L711.186 203H709.266L715.086 188.8ZM718.406 197.44L715.846 190.88L713.206 197.44H718.406ZM726.102 192.12V203H724.302V188.8H725.822L734.502 199.9V188.82H736.302V203H734.662L726.102 192.12ZM748.032 191.78C747.872 191.593 747.659 191.413 747.392 191.24C747.126 191.067 746.826 190.913 746.492 190.78C746.159 190.633 745.792 190.52 745.392 190.44C745.006 190.347 744.599 190.3 744.172 190.3C743.079 190.3 742.272 190.507 741.752 190.92C741.232 191.333 740.972 191.9 740.972 192.62C740.972 193.127 741.106 193.527 741.372 193.82C741.639 194.113 742.046 194.353 742.592 194.54C743.152 194.727 743.859 194.92 744.712 195.12C745.699 195.333 746.552 195.593 747.272 195.9C747.992 196.207 748.546 196.62 748.932 197.14C749.319 197.647 749.512 198.327 749.512 199.18C749.512 199.86 749.379 200.453 749.112 200.96C748.859 201.453 748.499 201.867 748.032 202.2C747.566 202.52 747.019 202.76 746.392 202.92C745.766 203.067 745.086 203.14 744.352 203.14C743.632 203.14 742.926 203.067 742.232 202.92C741.552 202.76 740.906 202.533 740.292 202.24C739.679 201.947 739.106 201.58 738.572 201.14L739.432 199.62C739.646 199.847 739.919 200.073 740.252 200.3C740.599 200.513 740.986 200.713 741.412 200.9C741.852 201.087 742.326 201.24 742.832 201.36C743.339 201.467 743.859 201.52 744.392 201.52C745.406 201.52 746.192 201.34 746.752 200.98C747.312 200.607 747.592 200.067 747.592 199.36C747.592 198.827 747.432 198.4 747.112 198.08C746.806 197.76 746.346 197.493 745.732 197.28C745.119 197.067 744.372 196.853 743.492 196.64C742.532 196.4 741.726 196.14 741.072 195.86C740.419 195.567 739.926 195.187 739.592 194.72C739.272 194.253 739.112 193.647 739.112 192.9C739.112 191.993 739.332 191.227 739.772 190.6C740.212 189.973 740.819 189.5 741.592 189.18C742.366 188.86 743.239 188.7 744.212 188.7C744.852 188.7 745.446 188.767 745.992 188.9C746.552 189.033 747.072 189.22 747.552 189.46C748.032 189.7 748.472 189.987 748.872 190.32L748.032 191.78Z" fill="#1C1C1C"/>
<path d="M642.92 467.08C642.173 467.08 641.475 466.92 640.824 466.6C640.184 466.269 639.624 465.832 639.144 465.288C638.664 464.733 638.291 464.115 638.024 463.432C637.757 462.739 637.624 462.024 637.624 461.288C637.624 460.52 637.757 459.795 638.024 459.112C638.291 458.419 638.659 457.805 639.128 457.272C639.608 456.739 640.168 456.323 640.808 456.024C641.459 455.715 642.163 455.56 642.92 455.56C644.019 455.56 644.925 455.789 645.64 456.248C646.355 456.707 646.893 457.304 647.256 458.04L646.152 458.808C645.821 458.147 645.368 457.656 644.792 457.336C644.216 457.016 643.581 456.856 642.888 456.856C642.312 456.856 641.789 456.979 641.32 457.224C640.851 457.469 640.445 457.805 640.104 458.232C639.773 458.648 639.517 459.123 639.336 459.656C639.165 460.189 639.08 460.744 639.08 461.32C639.08 461.928 639.176 462.504 639.368 463.048C639.571 463.581 639.853 464.056 640.216 464.472C640.579 464.877 641 465.197 641.48 465.432C641.96 465.667 642.477 465.784 643.032 465.784C643.683 465.784 644.301 465.619 644.888 465.288C645.475 464.957 646.029 464.451 646.552 463.768V465.256C645.528 466.472 644.317 467.08 642.92 467.08ZM646.376 462.424H643.928V461.336H647.592V467H646.376V462.424ZM654.47 467.08C653.563 467.08 652.801 466.925 652.182 466.616C651.563 466.296 651.067 465.869 650.694 465.336C650.321 464.792 650.049 464.179 649.878 463.496C649.707 462.813 649.622 462.109 649.622 461.384V455.64H651.062V461.384C651.062 461.939 651.115 462.483 651.222 463.016C651.339 463.539 651.526 464.008 651.782 464.424C652.038 464.84 652.385 465.171 652.822 465.416C653.259 465.661 653.803 465.784 654.454 465.784C655.115 465.784 655.665 465.661 656.102 465.416C656.539 465.16 656.886 464.824 657.142 464.408C657.398 463.981 657.579 463.507 657.686 462.984C657.803 462.461 657.862 461.928 657.862 461.384V455.64H659.302V461.384C659.302 462.152 659.211 462.883 659.03 463.576C658.859 464.259 658.582 464.861 658.198 465.384C657.814 465.907 657.313 466.323 656.694 466.632C656.086 466.931 655.345 467.08 654.47 467.08ZM661.86 467V455.64H666.724C667.225 455.64 667.684 455.747 668.1 455.96C668.516 456.163 668.879 456.44 669.188 456.792C669.497 457.133 669.737 457.523 669.908 457.96C670.079 458.387 670.164 458.824 670.164 459.272C670.164 459.795 670.063 460.291 669.86 460.76C669.668 461.229 669.391 461.629 669.028 461.96C668.676 462.291 668.26 462.52 667.78 462.648L670.532 467H668.9L666.308 462.92H663.3V467H661.86ZM663.3 461.64H666.74C667.135 461.64 667.476 461.533 667.764 461.32C668.063 461.096 668.292 460.803 668.452 460.44C668.623 460.077 668.708 459.688 668.708 459.272C668.708 458.845 668.612 458.456 668.42 458.104C668.228 457.741 667.977 457.453 667.668 457.24C667.359 457.027 667.017 456.92 666.644 456.92H663.3V461.64ZM677.064 467.08C676.157 467.08 675.394 466.925 674.776 466.616C674.157 466.296 673.661 465.869 673.288 465.336C672.914 464.792 672.642 464.179 672.472 463.496C672.301 462.813 672.216 462.109 672.216 461.384V455.64H673.656V461.384C673.656 461.939 673.709 462.483 673.816 463.016C673.933 463.539 674.12 464.008 674.376 464.424C674.632 464.84 674.978 465.171 675.416 465.416C675.853 465.661 676.397 465.784 677.048 465.784C677.709 465.784 678.258 465.661 678.696 465.416C679.133 465.16 679.48 464.824 679.736 464.408C679.992 463.981 680.173 463.507 680.28 462.984C680.397 462.461 680.456 461.928 680.456 461.384V455.64H681.896V461.384C681.896 462.152 681.805 462.883 681.624 463.576C681.453 464.259 681.176 464.861 680.792 465.384C680.408 465.907 679.906 466.323 679.288 466.632C678.68 466.931 677.938 467.08 677.064 467.08ZM688.501 467V455.64H696.005V456.92H689.941V460.712H695.045V461.912H689.941V467H688.501ZM700.41 455.64H701.626L706.266 467H704.73L703.386 463.672H698.618L697.29 467H695.754L700.41 455.64ZM703.066 462.552L701.018 457.304L698.906 462.552H703.066ZM714.298 458.024C714.17 457.875 713.999 457.731 713.786 457.592C713.572 457.453 713.332 457.331 713.066 457.224C712.799 457.107 712.506 457.016 712.186 456.952C711.876 456.877 711.551 456.84 711.21 456.84C710.335 456.84 709.69 457.005 709.274 457.336C708.858 457.667 708.65 458.12 708.65 458.696C708.65 459.101 708.756 459.421 708.97 459.656C709.183 459.891 709.508 460.083 709.946 460.232C710.394 460.381 710.959 460.536 711.642 460.696C712.431 460.867 713.114 461.075 713.69 461.32C714.266 461.565 714.708 461.896 715.018 462.312C715.327 462.717 715.482 463.261 715.482 463.944C715.482 464.488 715.375 464.963 715.162 465.368C714.959 465.763 714.671 466.093 714.298 466.36C713.924 466.616 713.487 466.808 712.986 466.936C712.484 467.053 711.94 467.112 711.354 467.112C710.778 467.112 710.212 467.053 709.658 466.936C709.114 466.808 708.596 466.627 708.106 466.392C707.615 466.157 707.156 465.864 706.73 465.512L707.418 464.296C707.588 464.477 707.807 464.659 708.074 464.84C708.351 465.011 708.66 465.171 709.002 465.32C709.354 465.469 709.732 465.592 710.138 465.688C710.543 465.773 710.959 465.816 711.386 465.816C712.196 465.816 712.826 465.672 713.274 465.384C713.722 465.085 713.946 464.653 713.946 464.088C713.946 463.661 713.818 463.32 713.562 463.064C713.316 462.808 712.948 462.595 712.458 462.424C711.967 462.253 711.37 462.083 710.666 461.912C709.898 461.72 709.252 461.512 708.73 461.288C708.207 461.053 707.812 460.749 707.546 460.376C707.29 460.003 707.162 459.517 707.162 458.92C707.162 458.195 707.338 457.581 707.69 457.08C708.042 456.579 708.527 456.2 709.146 455.944C709.764 455.688 710.463 455.56 711.242 455.56C711.754 455.56 712.228 455.613 712.666 455.72C713.114 455.827 713.53 455.976 713.914 456.168C714.298 456.36 714.65 456.589 714.97 456.856L714.298 458.024ZM726.512 455.64V467H725.072V461.832H718.816V467H717.376V455.64H718.816V460.552H725.072V455.64H726.512ZM729.235 467V455.64H730.675V467H729.235ZM737.999 467.08C737.199 467.08 736.474 466.92 735.823 466.6C735.173 466.28 734.607 465.848 734.127 465.304C733.658 464.749 733.295 464.131 733.039 463.448C732.783 462.755 732.655 462.045 732.655 461.32C732.655 460.563 732.789 459.843 733.055 459.16C733.333 458.467 733.711 457.853 734.191 457.32C734.682 456.776 735.253 456.349 735.903 456.04C736.554 455.72 737.263 455.56 738.031 455.56C738.831 455.56 739.557 455.725 740.207 456.056C740.858 456.387 741.418 456.829 741.887 457.384C742.357 457.939 742.719 458.557 742.975 459.24C743.231 459.923 743.359 460.621 743.359 461.336C743.359 462.093 743.226 462.819 742.959 463.512C742.693 464.195 742.314 464.808 741.823 465.352C741.343 465.885 740.778 466.307 740.127 466.616C739.477 466.925 738.767 467.08 737.999 467.08ZM734.111 461.32C734.111 461.896 734.202 462.456 734.383 463C734.575 463.533 734.842 464.008 735.183 464.424C735.525 464.84 735.935 465.171 736.415 465.416C736.895 465.661 737.429 465.784 738.015 465.784C738.623 465.784 739.167 465.656 739.647 465.4C740.127 465.144 740.533 464.803 740.863 464.376C741.205 463.949 741.461 463.469 741.631 462.936C741.813 462.403 741.903 461.864 741.903 461.32C741.903 460.744 741.807 460.189 741.615 459.656C741.434 459.123 741.167 458.648 740.815 458.232C740.474 457.805 740.063 457.475 739.583 457.24C739.114 456.995 738.591 456.872 738.015 456.872C737.407 456.872 736.863 457 736.383 457.256C735.903 457.501 735.493 457.837 735.151 458.264C734.821 458.691 734.565 459.171 734.383 459.704C734.202 460.227 734.111 460.765 734.111 461.32ZM746.8 458.296V467H745.36V455.64H746.576L753.52 464.52V455.656H754.96V467H753.648L746.8 458.296Z" fill="#1C1C1C"/>
<path d="M713.64 626.6L722.8 615.4H713.82V613.8H724.9V615.2L715.9 626.4H724.9V628H713.64V626.6ZM731.637 613.8H733.157L738.957 628H737.037L735.357 623.84H729.397L727.737 628H725.817L731.637 613.8ZM734.957 622.44L732.397 615.88L729.757 622.44H734.957ZM740.852 628V613.8H746.932C747.559 613.8 748.132 613.933 748.652 614.2C749.172 614.453 749.626 614.8 750.012 615.24C750.399 615.667 750.699 616.153 750.912 616.7C751.126 617.233 751.232 617.78 751.232 618.34C751.232 618.993 751.106 619.613 750.852 620.2C750.612 620.787 750.266 621.287 749.812 621.7C749.372 622.113 748.852 622.4 748.252 622.56L751.692 628H749.652L746.412 622.9H742.652V628H740.852ZM742.652 621.3H746.952C747.446 621.3 747.872 621.167 748.232 620.9C748.606 620.62 748.892 620.253 749.092 619.8C749.306 619.347 749.412 618.86 749.412 618.34C749.412 617.807 749.292 617.32 749.052 616.88C748.812 616.427 748.499 616.067 748.112 615.8C747.726 615.533 747.299 615.4 746.832 615.4H742.652V621.3ZM753.997 628V613.8H755.797V628H753.997ZM760.992 617.12V628H759.192V613.8H760.712L769.392 624.9V613.82H771.192V628H769.552L760.992 617.12ZM778.903 613.8H780.423L786.223 628H784.303L782.623 623.84H776.663L775.003 628H773.083L778.903 613.8ZM782.223 622.44L779.663 615.88L777.023 622.44H782.223Z" fill="#1C1C1C"/>
<path d="M121.98 828V817.16L117.3 825.5H116.2L111.5 817.16V828H109.7V813.8H111.6L116.74 823.02L121.9 813.8H123.78V828H121.98ZM126.76 828V825.76H128.24V828H126.76ZM142.123 824.34C142.123 825.073 141.937 825.713 141.563 826.26C141.19 826.807 140.683 827.233 140.043 827.54C139.417 827.847 138.723 828 137.963 828H131.223V813.8H138.283C138.95 813.8 139.523 813.98 140.003 814.34C140.497 814.687 140.87 815.14 141.123 815.7C141.39 816.247 141.523 816.82 141.523 817.42C141.523 818.113 141.343 818.767 140.983 819.38C140.637 819.98 140.137 820.427 139.483 820.72C140.297 820.96 140.937 821.407 141.403 822.06C141.883 822.7 142.123 823.46 142.123 824.34ZM140.303 824.02C140.303 823.58 140.203 823.173 140.003 822.8C139.817 822.427 139.557 822.127 139.223 821.9C138.903 821.673 138.53 821.56 138.103 821.56H133.023V826.44H137.963C138.403 826.44 138.797 826.327 139.143 826.1C139.503 825.873 139.783 825.58 139.983 825.22C140.197 824.847 140.303 824.447 140.303 824.02ZM133.023 815.36V820.1H137.543C137.97 820.1 138.343 819.993 138.663 819.78C138.997 819.567 139.257 819.28 139.443 818.92C139.643 818.56 139.743 818.167 139.743 817.74C139.743 817.287 139.65 816.887 139.463 816.54C139.29 816.18 139.043 815.893 138.723 815.68C138.417 815.467 138.063 815.36 137.663 815.36H133.023ZM144.741 828V813.8H146.541V825.5L154.761 813.8H156.441V828H154.641V816.52L146.521 828H144.741ZM158.934 830.72V826.4H159.574C159.948 826.4 160.274 826.253 160.554 825.96C160.834 825.653 161.074 825.173 161.274 824.52C161.474 823.853 161.634 822.967 161.754 821.86C161.874 820.753 161.961 819.387 162.014 817.76L162.114 813.8H170.914V826.4H172.674V830.72H171.074V828H160.534V830.72H158.934ZM161.974 826.4H169.114V815.4H163.774L163.714 817.98C163.674 819.66 163.588 821.067 163.454 822.2C163.321 823.333 163.134 824.24 162.894 824.92C162.654 825.6 162.348 826.093 161.974 826.4ZM184.711 826.4V828H175.071V813.8H184.531V815.4H176.871V820H183.531V821.5H176.871V826.4H184.711ZM192.667 828.1C191.667 828.1 190.76 827.9 189.947 827.5C189.134 827.1 188.427 826.56 187.827 825.88C187.24 825.187 186.787 824.413 186.467 823.56C186.147 822.693 185.987 821.807 185.987 820.9C185.987 819.953 186.154 819.053 186.487 818.2C186.834 817.333 187.307 816.567 187.907 815.9C188.52 815.22 189.234 814.687 190.047 814.3C190.86 813.9 191.747 813.7 192.707 813.7C193.707 813.7 194.614 813.907 195.427 814.32C196.24 814.733 196.94 815.287 197.527 815.98C198.114 816.673 198.567 817.447 198.887 818.3C199.207 819.153 199.367 820.027 199.367 820.92C199.367 821.867 199.2 822.773 198.867 823.64C198.534 824.493 198.06 825.26 197.447 825.94C196.847 826.607 196.14 827.133 195.327 827.52C194.514 827.907 193.627 828.1 192.667 828.1ZM187.807 820.9C187.807 821.62 187.92 822.32 188.147 823C188.387 823.667 188.72 824.26 189.147 824.78C189.574 825.3 190.087 825.713 190.687 826.02C191.287 826.327 191.954 826.48 192.687 826.48C193.447 826.48 194.127 826.32 194.727 826C195.327 825.68 195.834 825.253 196.247 824.72C196.674 824.187 196.994 823.587 197.207 822.92C197.434 822.253 197.547 821.58 197.547 820.9C197.547 820.18 197.427 819.487 197.187 818.82C196.96 818.153 196.627 817.56 196.187 817.04C195.76 816.507 195.247 816.093 194.647 815.8C194.06 815.493 193.407 815.34 192.687 815.34C191.927 815.34 191.247 815.5 190.647 815.82C190.047 816.127 189.534 816.547 189.107 817.08C188.694 817.613 188.374 818.213 188.147 818.88C187.92 819.533 187.807 820.207 187.807 820.9Z" fill="#1C1C1C"/>
<path d="M53.98 612V601.16L49.3 609.5H48.2L43.5 601.16V612H41.7V597.8H43.6L48.74 607.02L53.9 597.8H55.78V612H53.98ZM68.8205 610.4V612H59.1805V597.8H68.6405V599.4H60.9805V604H67.6405V605.5H60.9805V610.4H68.8205ZM71.2898 612V597.8H79.5498V599.4H73.0898V612H71.2898ZM86.0786 597.8H87.5986L93.3986 612H91.4786L89.7986 607.84H83.8386L82.1786 612H80.2586L86.0786 597.8ZM89.3986 606.44L86.8386 599.88L84.1986 606.44H89.3986ZM98.7273 614.72V610.4H99.3673C99.7407 610.4 100.067 610.253 100.347 609.96C100.627 609.653 100.867 609.173 101.067 608.52C101.267 607.853 101.427 606.967 101.547 605.86C101.667 604.753 101.754 603.387 101.807 601.76L101.907 597.8H110.707V610.4H112.467V614.72H110.867V612H100.327V614.72H98.7273ZM101.767 610.4H108.907V599.4H103.567L103.507 601.98C103.467 603.66 103.381 605.067 103.247 606.2C103.114 607.333 102.927 608.24 102.687 608.92C102.447 609.6 102.141 610.093 101.767 610.4ZM124.504 610.4V612H114.864V597.8H124.324V599.4H116.664V604H123.324V605.5H116.664V610.4H124.504ZM137.213 599.4H132.313V612H130.513V599.4H125.613V597.8H137.213V599.4ZM139.259 612V597.8H141.059V603.94H142.959L147.639 597.8H149.719L144.439 604.68L150.079 612H147.879L142.999 605.58H141.059V612H139.259ZM152.386 612V597.8H154.186V609.5L162.406 597.8H164.086V612H162.286V600.52L154.166 612H152.386Z" fill="#1C1C1C"/>
</g>
<defs>
<clipPath id="clip0_2135_8024">
<rect width="895" height="935" rx="8" fill="white"/>
</clipPath>
</defs>
</svg>
