<svg width="895" height="1097" viewBox="0 0 895 1097" fill="none" xmlns="http://www.w3.org/2000/svg">
<g clip-path="url(#clip0_2220_2289)">
<rect width="895" height="1097" rx="8" fill="white"/>
<path d="M25 1083V699C25 696.791 26.7909 695 29 695H350.781C352.991 695 354.781 696.791 354.781 699V836.975C354.781 839.184 356.572 840.975 358.781 840.975H459.068C461.277 840.975 463.068 842.766 463.068 844.975V846.816C463.068 849.025 464.859 850.816 467.068 850.816H674C676.209 850.816 678 852.607 678 854.816V1004.27C678 1006.48 676.209 1008.27 674 1008.27H462.146C459.937 1008.27 458.146 1010.06 458.146 1012.27V1083C458.146 1085.21 456.355 1087 454.146 1087H29C26.7909 1087 25 1085.21 25 1083Z" fill="black" fill-opacity="0.05"/>
<rect opacity="0.4" x="2" y="2" width="891" height="1093" rx="6" stroke="#4A4A4A" stroke-opacity="0.32" stroke-width="4"/>
<path d="M29 422.7H65C66.8225 422.7 68.2998 424.177 68.2998 426V495C68.2998 496.823 66.8225 498.3 65 498.3H29C27.1775 498.3 25.7002 496.823 25.7002 495V426C25.7002 424.177 27.1775 422.7 29 422.7Z" stroke="#CFCFCF" stroke-width="1.4"/>
<path d="M37.9737 449.177C37.8954 449.211 37.8244 449.259 37.7646 449.319L37.7608 449.315L35.1292 451.856L36.0595 452.754L37.568 451.298V457.387H38.8838V451.298L40.3924 452.754L41.3227 451.856L38.6911 449.315C38.5028 449.133 38.2198 449.079 37.9737 449.177Z" fill="#1C1C1C"/>
<path d="M53.9618 472.823C54.0402 472.789 54.1112 472.741 54.1709 472.681L54.1748 472.685L56.8064 470.144L55.8761 469.246L54.3675 470.702V464.613H53.0517V470.702L51.5432 469.246L50.6128 470.144L53.2445 472.685C53.4327 472.867 53.7157 472.921 53.9618 472.823Z" fill="#1C1C1C"/>
<path d="M55.0644 450.161C54.6012 450.161 54.2257 450.541 54.2257 451.009V455.249H50.0322C49.5689 455.249 49.1935 455.628 49.1935 456.097V459.488H44.9999C44.5367 459.488 44.1612 459.868 44.1612 460.336V463.728H39.9676C39.5044 463.728 39.1289 464.108 39.1289 464.576V467.968H34.9354C34.4722 467.968 34.0967 468.347 34.0967 468.816V473.055C34.0967 473.523 34.4722 473.903 34.9354 473.903C35.3986 473.903 35.7741 473.523 35.7741 473.055V469.663H39.9676C40.4309 469.663 40.8064 469.284 40.8064 468.816V465.424H44.9999C45.4631 465.424 45.8386 465.044 45.8386 464.576V461.184H50.0322C50.4954 461.184 50.8709 460.805 50.8709 460.336V456.945H55.0644C55.5276 456.945 55.9031 456.565 55.9031 456.097V451.857H60.0967C60.5599 451.857 60.9354 451.477 60.9354 451.009C60.9354 450.541 60.5599 450.161 60.0967 450.161H55.0644Z" fill="#1C1C1C"/>
<path d="M832 851.7H868C869.823 851.7 871.3 853.177 871.3 855V919C871.3 920.823 869.823 922.3 868 922.3H832C830.177 922.3 828.7 920.823 828.7 919V855C828.7 853.177 830.177 851.7 832 851.7Z" stroke="#CFCFCF" stroke-width="1.4"/>
<path d="M779.567 7.07579H25.0597C23.2586 7.03422 21.7761 8.48292 21.7761 10.2845V580.943C21.7761 583.152 19.9853 584.943 17.7761 584.943H11.7833C9.58892 584.943 7.80422 586.711 7.78352 588.905L7.03809 667.925C7.01711 670.148 8.81402 671.962 11.0379 671.962H17.7761C19.9853 671.962 21.7761 673.753 21.7761 675.962V1085C21.7761 1087.21 23.567 1089 25.7761 1089H869.866C872.075 1089 873.866 1087.21 873.866 1085V674.32C873.866 672.111 875.656 670.32 877.866 670.32H883C885.209 670.32 887 668.53 887 666.32V590.584C887 588.375 885.209 586.584 883 586.584H877.866C875.656 586.584 873.866 584.794 873.866 582.584V200.995C873.866 198.777 872.062 196.983 869.844 196.995L787.589 197.437C785.371 197.449 783.567 195.654 783.567 193.437V11.0758C783.567 8.86665 781.776 7.07579 779.567 7.07579Z" stroke="#CFCFCF" stroke-width="1.4"/>
<rect x="461.7" y="1086.3" width="28.6" height="215.6" rx="3.3" transform="rotate(-90 461.7 1086.3)" stroke="#CFCFCF" stroke-width="1.4"/>
<path d="M579.782 1062.12H573.109C572.911 1062.12 572.721 1062.2 572.581 1062.34L562.192 1072.9H558.218C557.805 1072.9 557.471 1073.24 557.471 1073.66V1079.47C557.471 1079.89 557.805 1080.24 558.218 1080.24H564.891C565.089 1080.24 565.279 1080.16 565.419 1080.01L575.808 1069.45H579.782C580.195 1069.45 580.529 1069.11 580.529 1068.69V1062.88C580.529 1062.46 580.195 1062.12 579.782 1062.12ZM579.035 1067.93H575.499C575.302 1067.93 575.112 1068.01 574.972 1068.15L564.582 1078.71H558.965V1074.42H562.501C562.699 1074.42 562.888 1074.34 563.028 1074.2L573.418 1063.64H579.035V1067.93Z" fill="#1C1C1C"/>
<path d="M562 1066.24C559.957 1066.24 558.294 1067.85 558.294 1069.83V1073.65H559.838V1069.83C559.838 1068.67 560.808 1067.73 562 1067.73C563.192 1067.73 564.162 1068.67 564.162 1069.83V1071.68H565.706V1069.83C565.706 1067.85 564.043 1066.24 562 1066.24Z" fill="#1C1C1C"/>
<path d="M562 1060.47C560.411 1060.47 559.118 1061.76 559.118 1063.35C559.118 1064.94 560.411 1066.24 562 1066.24C563.589 1066.24 564.882 1064.94 564.882 1063.35C564.882 1061.76 563.589 1060.47 562 1060.47ZM562 1064.78C561.212 1064.78 560.571 1064.14 560.571 1063.35C560.571 1062.56 561.212 1061.92 562 1061.92C562.788 1061.92 563.429 1062.56 563.429 1063.35C563.429 1064.14 562.788 1064.78 562 1064.78Z" fill="#1C1C1C"/>
<path d="M572.093 1076.16C572.03 1076.18 571.974 1076.22 571.926 1076.27L571.923 1076.27L569.823 1078.29L570.566 1079.01L571.769 1077.85V1082.71H572.819V1077.85L574.022 1079.01L574.765 1078.29L572.665 1076.27C572.515 1076.12 572.289 1076.08 572.093 1076.16Z" fill="#1C1C1C"/>
<path d="M578.26 1082.67C578.323 1082.64 578.379 1082.6 578.427 1082.55L578.43 1082.56L580.529 1080.53L579.787 1079.81L578.584 1080.98V1076.12H577.534V1080.98L576.33 1079.81L575.588 1080.53L577.688 1082.56C577.838 1082.7 578.064 1082.75 578.26 1082.67Z" fill="#1C1C1C"/>
<rect x="461.7" y="1054.3" width="43.6" height="215.6" rx="3.3" transform="rotate(-90 461.7 1054.3)" stroke="#CFCFCF" stroke-width="1.4"/>
<path d="M579.782 1023.12H573.109C572.911 1023.12 572.721 1023.2 572.581 1023.34L562.192 1033.9H558.218C557.805 1033.9 557.471 1034.24 557.471 1034.66V1040.47C557.471 1040.89 557.805 1041.24 558.218 1041.24H564.891C565.089 1041.24 565.279 1041.16 565.419 1041.01L575.808 1030.45H579.782C580.195 1030.45 580.529 1030.11 580.529 1029.69V1023.88C580.529 1023.46 580.195 1023.12 579.782 1023.12ZM579.035 1028.93H575.499C575.302 1028.93 575.112 1029.01 574.972 1029.15L564.582 1039.71H558.965V1035.42H562.501C562.699 1035.42 562.888 1035.34 563.028 1035.2L573.418 1024.64H579.035V1028.93Z" fill="#1C1C1C"/>
<path d="M562 1027.24C559.957 1027.24 558.294 1028.85 558.294 1030.83V1034.65H559.838V1030.83C559.838 1029.67 560.808 1028.73 562 1028.73C563.192 1028.73 564.162 1029.67 564.162 1030.83V1032.68H565.706V1030.83C565.706 1028.85 564.043 1027.24 562 1027.24Z" fill="#1C1C1C"/>
<path d="M562 1021.47C560.411 1021.47 559.118 1022.76 559.118 1024.35C559.118 1025.94 560.411 1027.24 562 1027.24C563.589 1027.24 564.882 1025.94 564.882 1024.35C564.882 1022.76 563.589 1021.47 562 1021.47ZM562 1025.78C561.212 1025.78 560.571 1025.14 560.571 1024.35C560.571 1023.56 561.212 1022.92 562 1022.92C562.788 1022.92 563.429 1023.56 563.429 1024.35C563.429 1025.14 562.788 1025.78 562 1025.78Z" fill="#1C1C1C"/>
<path d="M572.093 1037.16C572.03 1037.18 571.974 1037.22 571.926 1037.27L571.923 1037.27L569.823 1039.29L570.566 1040.01L571.769 1038.85V1043.71H572.819V1038.85L574.022 1040.01L574.765 1039.29L572.665 1037.27C572.515 1037.12 572.289 1037.08 572.093 1037.16Z" fill="#1C1C1C"/>
<path d="M578.26 1043.67C578.323 1043.64 578.379 1043.6 578.427 1043.55L578.43 1043.56L580.529 1041.53L579.787 1040.81L578.584 1041.98V1037.12H577.534V1041.98L576.33 1040.81L575.588 1041.53L577.688 1043.56C577.838 1043.7 578.064 1043.75 578.26 1043.67Z" fill="#1C1C1C"/>
<rect x="25" y="672" width="110" height="21" rx="4" fill="black" fill-opacity="0.05"/>
<rect x="10" y="630" width="125" height="40" rx="4" fill="black" fill-opacity="0.05"/>
<rect x="10" y="588" width="125" height="40" rx="4" fill="black" fill-opacity="0.05"/>
<rect x="746" y="1012" width="34" height="75" rx="4" fill="black" fill-opacity="0.05"/>
<rect x="782" y="1012" width="90" height="75" rx="4" fill="black" fill-opacity="0.05"/>
<rect x="771" y="960" width="101" height="50" rx="4" fill="black" fill-opacity="0.05"/>
<rect x="778" y="764" width="94" height="51" rx="4" fill="black" fill-opacity="0.05"/>
<rect x="778" y="670" width="94" height="23" rx="4" fill="black" fill-opacity="0.05"/>
<rect x="778" y="627" width="107" height="41" rx="4" fill="black" fill-opacity="0.05"/>
<rect x="778" y="590" width="107" height="36" rx="4" fill="black" fill-opacity="0.05"/>
<rect x="778" y="560" width="30" height="28" rx="4" fill="black" fill-opacity="0.05"/>
<path d="M778 502C778 499.791 779.791 498 782 498H868C870.209 498 872 499.791 872 502V584C872 586.209 870.209 588 868 588H813.333C811.124 588 809.333 586.209 809.333 584V562.545C809.333 560.336 807.542 558.545 805.333 558.545H782C779.791 558.545 778 556.755 778 554.545V502Z" fill="black" fill-opacity="0.05"/>
<path d="M674 451C674 448.791 675.791 447 678 447H772C774.209 447 776 448.791 776 451V501C776 503.209 774.209 505 772 505H678C675.791 505 674 503.209 674 501V451Z" fill="black" fill-opacity="0.05"/>
<path d="M674 318C674 315.791 675.791 314 678 314H720C722.209 314 724 315.791 724 318V422C724 424.209 722.209 426 720 426H678C675.791 426 674 424.209 674 422V318Z" fill="black" fill-opacity="0.05"/>
<path d="M726 318C726 315.791 727.791 314 730 314H772C774.209 314 776 315.791 776 318V422C776 424.209 774.209 426 772 426H730C727.791 426 726 424.209 726 422V318Z" fill="black" fill-opacity="0.05"/>
<path d="M778 262C778 259.791 779.791 258 782 258H868C870.209 258 872 259.791 872 262V492C872 494.209 870.209 496 868 496H782C779.791 496 778 494.209 778 492V262Z" fill="black" fill-opacity="0.05"/>
<path d="M778 252C778 254.209 779.791 256 782 256H868C870.209 256 872 254.209 872 252V203C872 200.791 870.209 199 868 199H782C779.791 199 778 200.791 778 203V252Z" fill="black" fill-opacity="0.05"/>
<path d="M682 283C682 285.209 683.791 287 686 287H765C767.209 287 769 285.209 769 283V204C769 201.791 767.209 200 765 200H686C683.791 200 682 201.791 682 204V283Z" fill="black" fill-opacity="0.05"/>
<path d="M622 241C622 243.209 623.791 245 626 245H668C670.209 245 672 243.209 672 241V208C672 205.791 670.209 204 668 204H626C623.791 204 622 205.791 622 208V241Z" fill="black" fill-opacity="0.05"/>
<rect x="25" y="501" width="144" height="85" rx="4" fill="black" fill-opacity="0.05"/>
<path d="M778 9H29C26.7909 9 25 10.7909 25 13V415.959C25 418.168 26.7909 419.959 29 419.959H66.9783C69.1875 419.959 70.9783 421.75 70.9783 423.959V494.863C70.9783 497.072 72.7692 498.863 74.9783 498.863H167.145C169.354 498.863 171.145 500.654 171.145 502.863V583.648C171.145 585.85 169.365 587.638 167.163 587.648L140.681 587.765C138.479 587.775 136.699 589.562 136.699 591.765V688.836C136.699 691.045 138.489 692.836 140.699 692.836H352.622C354.831 692.836 356.622 694.626 356.622 696.836V756.233C356.622 758.442 358.413 760.233 360.622 760.233H461.078C463.287 760.233 465.078 762.024 465.078 764.233V845C465.078 847.209 466.869 849 469.078 849H741.874C744.083 849 745.874 847.209 745.874 845V511.082C745.874 508.873 744.083 507.082 741.874 507.082H675.98C673.771 507.082 671.98 505.291 671.98 503.082V251.375C671.98 249.158 670.178 247.364 667.962 247.375L623.452 247.579C621.236 247.59 619.434 245.796 619.434 243.579V205.329C619.434 203.12 621.225 201.329 623.434 201.329H667.98C670.19 201.329 671.98 199.538 671.98 197.329V193.822C671.98 191.613 673.771 189.822 675.98 189.822H778C780.209 189.822 782 188.031 782 185.822V13C782 10.7909 780.209 9 778 9Z" fill="black" fill-opacity="0.05"/>
<rect x="357.7" y="762.7" width="104.6" height="75.6" rx="3.3" stroke="#CFCFCF" stroke-width="1.4"/>
<path d="M393.148 789.446L397.884 795.777C398.274 796.299 397.903 797.043 397.252 797.043H387.78C387.129 797.043 386.758 796.299 387.148 795.777L391.885 789.446C392.2 789.024 392.832 789.024 393.148 789.446ZM389.359 795.46H395.674L392.516 791.24L389.359 795.46ZM393.148 812.555C392.832 812.977 392.2 812.977 391.885 812.555L387.148 806.223C386.758 805.702 387.129 804.957 387.78 804.957H397.252C397.903 804.957 398.274 805.702 397.884 806.223L393.148 812.555ZM389.359 806.54L392.516 810.761L395.674 806.54H389.359ZM379.886 801.792C379.45 801.792 379.097 801.437 379.097 801C379.097 800.563 379.45 800.209 379.886 800.209H405.146C405.582 800.209 405.935 800.563 405.935 801C405.935 801.437 405.582 801.792 405.146 801.792H379.886Z" fill="#1C1C1C"/>
<path d="M429.148 789.446L433.884 795.777C434.274 796.299 433.903 797.043 433.252 797.043H423.78C423.129 797.043 422.758 796.299 423.148 795.777L427.885 789.446C428.2 789.024 428.832 789.024 429.148 789.446ZM425.359 795.46H431.674L428.516 791.24L425.359 795.46ZM429.148 812.555C428.832 812.977 428.2 812.977 427.885 812.555L423.148 806.223C422.758 805.702 423.129 804.957 423.78 804.957H433.252C433.903 804.957 434.274 805.702 433.884 806.223L429.148 812.555ZM425.359 806.54L428.516 810.761L431.674 806.54H425.359ZM415.886 801.792C415.45 801.792 415.097 801.437 415.097 801C415.097 800.563 415.45 800.209 415.886 800.209H441.146C441.582 800.209 441.936 800.563 441.936 801C441.936 801.437 441.582 801.792 441.146 801.792H415.886Z" fill="#1C1C1C"/>
<path d="M680 1083V855C680 852.791 681.791 851 684 851H765C767.209 851 769 852.791 769 855V1005.99C769 1008.2 767.209 1009.99 765 1009.99H748.278C746.069 1009.99 744.278 1011.78 744.278 1013.99V1083C744.278 1085.21 742.487 1087 740.278 1087H684C681.791 1087 680 1085.21 680 1083Z" fill="black" fill-opacity="0.05"/>
<path d="M868 958H775C772.791 958 771 956.209 771 954V855C771 852.791 772.791 851 775 851H822.387C824.596 851 826.387 852.791 826.387 855V921.435C826.387 923.644 828.178 925.435 830.387 925.435H868C870.209 925.435 872 927.226 872 929.435V954C872 956.209 870.209 958 868 958Z" fill="black" fill-opacity="0.05"/>
<path d="M330.66 436.12C329.82 436.12 329.027 435.987 328.28 435.72C327.547 435.453 326.887 435.073 326.3 434.58C325.727 434.087 325.26 433.5 324.9 432.82L326.42 432C326.713 432.547 327.08 433.007 327.52 433.38C327.96 433.753 328.447 434.033 328.98 434.22C329.527 434.407 330.08 434.5 330.64 434.5C331.373 434.5 332.047 434.353 332.66 434.06C333.287 433.753 333.827 433.34 334.28 432.82C334.733 432.3 335.073 431.707 335.3 431.04C335.54 430.36 335.647 429.653 335.62 428.92L336.42 429.48H329.34V428H336.38L335.62 428.52C335.607 427.88 335.487 427.253 335.26 426.64C335.033 426.013 334.707 425.453 334.28 424.96C333.867 424.467 333.353 424.073 332.74 423.78C332.14 423.487 331.447 423.34 330.66 423.34C330.113 423.34 329.58 423.427 329.06 423.6C328.553 423.773 328.087 424.04 327.66 424.4C327.247 424.747 326.893 425.2 326.6 425.76L325.14 424.82C325.66 423.913 326.367 423.173 327.26 422.6C328.167 422.013 329.293 421.72 330.64 421.72C331.733 421.72 332.707 421.927 333.56 422.34C334.413 422.74 335.133 423.28 335.72 423.96C336.307 424.64 336.753 425.407 337.06 426.26C337.367 427.1 337.52 427.967 337.52 428.86C337.52 429.793 337.353 430.693 337.02 431.56C336.7 432.427 336.233 433.207 335.62 433.9C335.02 434.58 334.3 435.12 333.46 435.52C332.62 435.92 331.687 436.12 330.66 436.12ZM340.016 436V421.8H341.816V427.94H343.716L348.396 421.8H350.476L345.196 428.68L350.836 436H348.636L343.756 429.58H341.816V436H340.016ZM358.003 436.1C357.003 436.1 356.096 435.9 355.283 435.5C354.47 435.1 353.763 434.56 353.163 433.88C352.576 433.187 352.123 432.413 351.803 431.56C351.483 430.693 351.323 429.807 351.323 428.9C351.323 427.953 351.49 427.053 351.823 426.2C352.17 425.333 352.643 424.567 353.243 423.9C353.856 423.22 354.57 422.687 355.383 422.3C356.196 421.9 357.083 421.7 358.043 421.7C359.043 421.7 359.95 421.907 360.763 422.32C361.576 422.733 362.276 423.287 362.863 423.98C363.45 424.673 363.903 425.447 364.223 426.3C364.543 427.153 364.703 428.027 364.703 428.92C364.703 429.867 364.536 430.773 364.203 431.64C363.87 432.493 363.396 433.26 362.783 433.94C362.183 434.607 361.476 435.133 360.663 435.52C359.85 435.907 358.963 436.1 358.003 436.1ZM353.143 428.9C353.143 429.62 353.256 430.32 353.483 431C353.723 431.667 354.056 432.26 354.483 432.78C354.91 433.3 355.423 433.713 356.023 434.02C356.623 434.327 357.29 434.48 358.023 434.48C358.783 434.48 359.463 434.32 360.063 434C360.663 433.68 361.17 433.253 361.583 432.72C362.01 432.187 362.33 431.587 362.543 430.92C362.77 430.253 362.883 429.58 362.883 428.9C362.883 428.18 362.763 427.487 362.523 426.82C362.296 426.153 361.963 425.56 361.523 425.04C361.096 424.507 360.583 424.093 359.983 423.8C359.396 423.493 358.743 423.34 358.023 423.34C357.263 423.34 356.583 423.5 355.983 423.82C355.383 424.127 354.87 424.547 354.443 425.08C354.03 425.613 353.71 426.213 353.483 426.88C353.256 427.533 353.143 428.207 353.143 428.9ZM378.624 421.8V436H376.824V429.54H369.004V436H367.204V421.8H369.004V427.94H376.824V421.8H378.624ZM387.788 436.1C386.788 436.1 385.881 435.9 385.068 435.5C384.255 435.1 383.548 434.56 382.948 433.88C382.361 433.187 381.908 432.413 381.588 431.56C381.268 430.693 381.108 429.807 381.108 428.9C381.108 427.953 381.275 427.053 381.608 426.2C381.955 425.333 382.428 424.567 383.028 423.9C383.641 423.22 384.355 422.687 385.168 422.3C385.981 421.9 386.868 421.7 387.828 421.7C388.828 421.7 389.735 421.907 390.548 422.32C391.361 422.733 392.061 423.287 392.648 423.98C393.235 424.673 393.688 425.447 394.008 426.3C394.328 427.153 394.488 428.027 394.488 428.92C394.488 429.867 394.321 430.773 393.988 431.64C393.655 432.493 393.181 433.26 392.568 433.94C391.968 434.607 391.261 435.133 390.448 435.52C389.635 435.907 388.748 436.1 387.788 436.1ZM382.928 428.9C382.928 429.62 383.041 430.32 383.268 431C383.508 431.667 383.841 432.26 384.268 432.78C384.695 433.3 385.208 433.713 385.808 434.02C386.408 434.327 387.075 434.48 387.808 434.48C388.568 434.48 389.248 434.32 389.848 434C390.448 433.68 390.955 433.253 391.368 432.72C391.795 432.187 392.115 431.587 392.328 430.92C392.555 430.253 392.668 429.58 392.668 428.9C392.668 428.18 392.548 427.487 392.308 426.82C392.081 426.153 391.748 425.56 391.308 425.04C390.881 424.507 390.368 424.093 389.768 423.8C389.181 423.493 388.528 423.34 387.808 423.34C387.048 423.34 386.368 423.5 385.768 423.82C385.168 424.127 384.655 424.547 384.228 425.08C383.815 425.613 383.495 426.213 383.268 426.88C383.041 427.533 382.928 428.207 382.928 428.9ZM409.269 436V425.16L404.589 433.5H403.489L398.789 425.16V436H396.989V421.8H398.889L404.029 431.02L409.189 421.8H411.069V436H409.269ZM419.528 436V421.8H430.488V436H428.688V423.4H421.328V436H419.528ZM443.284 436V423.4H437.984L437.904 426.22C437.837 428.153 437.69 429.76 437.464 431.04C437.25 432.307 436.937 433.307 436.524 434.04C436.124 434.76 435.624 435.273 435.024 435.58C434.424 435.887 433.71 436.04 432.884 436.04V434.46C433.39 434.46 433.837 434.333 434.224 434.08C434.61 433.827 434.937 433.387 435.204 432.76C435.484 432.12 435.704 431.233 435.864 430.1C436.024 428.967 436.13 427.52 436.184 425.76L436.304 421.8H445.084V436H443.284ZM459.233 436.1C458.046 436.1 456.993 435.833 456.073 435.3C455.153 434.767 454.413 434.02 453.853 433.06C453.293 432.087 452.966 430.953 452.873 429.66H450.293V436H448.493V421.8H450.293V428.06H452.893C453 426.74 453.34 425.607 453.913 424.66C454.486 423.713 455.233 422.987 456.153 422.48C457.086 421.96 458.12 421.7 459.253 421.7C460.56 421.7 461.7 422.007 462.673 422.62C463.646 423.233 464.406 424.087 464.953 425.18C465.5 426.26 465.773 427.507 465.773 428.92C465.773 430.44 465.486 431.733 464.913 432.8C464.34 433.867 463.56 434.687 462.573 435.26C461.6 435.82 460.486 436.1 459.233 436.1ZM459.253 434.48C460.226 434.48 461.06 434.24 461.753 433.76C462.446 433.28 462.98 432.62 463.353 431.78C463.74 430.94 463.933 429.98 463.933 428.9C463.933 427.753 463.733 426.767 463.333 425.94C462.933 425.113 462.38 424.473 461.673 424.02C460.98 423.567 460.166 423.34 459.233 423.34C458.286 423.34 457.466 423.58 456.773 424.06C456.093 424.527 455.566 425.18 455.193 426.02C454.833 426.847 454.653 427.807 454.653 428.9C454.653 430.033 454.84 431.02 455.213 431.86C455.6 432.7 456.14 433.347 456.833 433.8C457.526 434.253 458.333 434.48 459.253 434.48ZM467.358 428.8C467.358 427.933 467.505 427.087 467.798 426.26C468.105 425.42 468.545 424.66 469.118 423.98C469.705 423.287 470.418 422.74 471.258 422.34C472.098 421.927 473.051 421.72 474.118 421.72C475.385 421.72 476.471 422.013 477.378 422.6C478.285 423.173 478.958 423.913 479.398 424.82L477.978 425.74C477.698 425.14 477.338 424.667 476.898 424.32C476.471 423.96 476.005 423.707 475.498 423.56C475.005 423.413 474.518 423.34 474.038 423.34C473.251 423.34 472.551 423.5 471.938 423.82C471.338 424.14 470.831 424.567 470.418 425.1C470.005 425.633 469.691 426.233 469.478 426.9C469.278 427.553 469.178 428.213 469.178 428.88C469.178 429.613 469.298 430.32 469.538 431C469.791 431.68 470.138 432.28 470.578 432.8C471.018 433.32 471.538 433.733 472.138 434.04C472.738 434.347 473.391 434.5 474.098 434.5C474.591 434.5 475.098 434.413 475.618 434.24C476.138 434.067 476.625 433.8 477.078 433.44C477.531 433.067 477.891 432.587 478.158 432L479.658 432.82C479.365 433.527 478.911 434.127 478.298 434.62C477.685 435.113 476.998 435.487 476.238 435.74C475.491 435.993 474.751 436.12 474.018 436.12C473.045 436.12 472.151 435.913 471.338 435.5C470.525 435.073 469.818 434.513 469.218 433.82C468.631 433.113 468.171 432.327 467.838 431.46C467.518 430.58 467.358 429.693 467.358 428.8Z" fill="#1C1C1C"/>
<path d="M249.7 935V920.82H251.5V928.66L258.82 920.8H260.76L255.06 927.06L261.08 935H259.06L253.92 928.14L251.5 930.66V935H249.7ZM267.067 920.8H268.587L274.387 935H272.467L270.787 930.84H264.827L263.167 935H261.247L267.067 920.8ZM270.387 929.44L267.827 922.88L265.187 929.44H270.387ZM276.282 935V920.8H282.362C282.989 920.8 283.562 920.933 284.082 921.2C284.602 921.453 285.055 921.8 285.442 922.24C285.829 922.667 286.129 923.153 286.342 923.7C286.555 924.233 286.662 924.78 286.662 925.34C286.662 925.993 286.535 926.613 286.282 927.2C286.042 927.787 285.695 928.287 285.242 928.7C284.802 929.113 284.282 929.4 283.682 929.56L287.122 935H285.082L281.842 929.9H278.082V935H276.282ZM278.082 928.3H282.382C282.875 928.3 283.302 928.167 283.662 927.9C284.035 927.62 284.322 927.253 284.522 926.8C284.735 926.347 284.842 925.86 284.842 925.34C284.842 924.807 284.722 924.32 284.482 923.88C284.242 923.427 283.929 923.067 283.542 922.8C283.155 922.533 282.729 922.4 282.262 922.4H278.082V928.3ZM289.427 935V920.8H291.227V935H289.427Z" fill="#1C1C1C"/>
<path d="M814.564 989.72V991H806.852V979.64H814.42V980.92H808.292V984.6H813.62V985.8H808.292V989.72H814.564ZM816.54 991V979.64H817.98V989.72H824.316V991H816.54ZM825.883 991V979.64H827.323V991H825.883ZM838.232 980.92H834.312V991H832.872V980.92H828.952V979.64H838.232V980.92Z" fill="#1C1C1C"/>
<path d="M719 881.368H730.36V889.16H729.096V882.808H725.512V886.36C725.512 887.608 725.219 888.536 724.632 889.144C724.045 889.762 723.277 890.072 722.328 890.072C721.699 890.072 721.133 889.938 720.632 889.672C720.131 889.405 719.731 889.005 719.432 888.472C719.144 887.938 719 887.266 719 886.456V881.368ZM720.264 882.808V886.28C720.264 886.834 720.365 887.282 720.568 887.624C720.771 887.965 721.032 888.21 721.352 888.36C721.683 888.52 722.024 888.6 722.376 888.6C722.717 888.6 723.037 888.53 723.336 888.392C723.645 888.253 723.891 888.013 724.072 887.672C724.264 887.33 724.36 886.85 724.36 886.232V882.808H720.264ZM730.36 895.121V896.337L719 900.977V899.441L722.328 898.097V893.329L719 892.001V890.465L730.36 895.121ZM723.448 897.777L728.696 895.729L723.448 893.617V897.777ZM730.36 911.629H719V910.189H724.168V903.933H719V902.493H730.36V903.933H725.448V910.189H730.36V911.629ZM729.08 922.544V918.624H719V917.184H729.08V913.264H730.36V922.544H729.08ZM718.92 928.445C718.92 927.645 719.08 926.919 719.4 926.269C719.72 925.618 720.152 925.053 720.696 924.573C721.251 924.103 721.869 923.741 722.552 923.485C723.245 923.229 723.955 923.101 724.68 923.101C725.437 923.101 726.157 923.234 726.84 923.501C727.533 923.778 728.147 924.157 728.68 924.637C729.224 925.127 729.651 925.698 729.96 926.349C730.28 926.999 730.44 927.709 730.44 928.477C730.44 929.277 730.275 930.002 729.944 930.653C729.613 931.303 729.171 931.863 728.616 932.333C728.061 932.802 727.443 933.165 726.76 933.421C726.077 933.677 725.379 933.805 724.664 933.805C723.907 933.805 723.181 933.671 722.488 933.405C721.805 933.138 721.192 932.759 720.648 932.269C720.115 931.789 719.693 931.223 719.384 930.573C719.075 929.922 718.92 929.213 718.92 928.445ZM724.68 924.557C724.104 924.557 723.544 924.647 723 924.829C722.467 925.021 721.992 925.287 721.576 925.629C721.16 925.97 720.829 926.381 720.584 926.861C720.339 927.341 720.216 927.874 720.216 928.461C720.216 929.069 720.344 929.613 720.6 930.093C720.856 930.573 721.197 930.978 721.624 931.309C722.051 931.65 722.531 931.906 723.064 932.077C723.597 932.258 724.136 932.349 724.68 932.349C725.256 932.349 725.811 932.253 726.344 932.061C726.877 931.879 727.352 931.613 727.768 931.261C728.195 930.919 728.525 930.509 728.76 930.029C729.005 929.559 729.128 929.037 729.128 928.461C729.128 927.853 729 927.309 728.744 926.829C728.499 926.349 728.163 925.938 727.736 925.597C727.309 925.266 726.829 925.01 726.296 924.829C725.773 924.647 725.235 924.557 724.68 924.557ZM719 945.629H727.672L721 941.885V941.005L727.672 937.245H719V935.805H730.36V937.325L722.984 941.437L730.36 945.565V947.069H719V945.629ZM730.36 953.246V954.462L719 959.102V957.566L722.328 956.222V951.454L719 950.126V948.59L730.36 953.246ZM723.448 955.902L728.696 953.854L723.448 951.742V955.902ZM729.08 967.747V963.827H719V962.387H729.08V958.467H730.36V967.747H729.08ZM719 969.383H730.36V970.823H726.056V973.543C726.056 974.375 725.907 975.069 725.608 975.623C725.32 976.178 724.909 976.594 724.376 976.871C723.853 977.159 723.24 977.303 722.536 977.303C721.875 977.303 721.272 977.165 720.728 976.887C720.195 976.61 719.773 976.199 719.464 975.655C719.155 975.111 719 974.439 719 973.639V969.383ZM720.2 970.823V973.447C720.2 974.013 720.307 974.471 720.52 974.823C720.744 975.175 721.032 975.431 721.384 975.591C721.747 975.751 722.131 975.831 722.536 975.831C722.941 975.831 723.32 975.757 723.672 975.607C724.024 975.469 724.307 975.223 724.52 974.871C724.744 974.519 724.856 974.039 724.856 973.431V970.823H720.2ZM719 979.191H730.344V980.631H719V979.191Z" fill="#1C1C1C"/>
<path d="M810.849 946V938.44H807.669L807.621 940.132C807.581 941.292 807.493 942.256 807.357 943.024C807.229 943.784 807.041 944.384 806.793 944.824C806.553 945.256 806.253 945.564 805.893 945.748C805.533 945.932 805.105 946.024 804.609 946.024V945.076C804.913 945.076 805.181 945 805.413 944.848C805.645 944.696 805.841 944.432 806.001 944.056C806.169 943.672 806.301 943.14 806.397 942.46C806.493 941.78 806.557 940.912 806.589 939.856L806.661 937.48H811.929V946H810.849ZM816.567 937.48H817.479L820.959 946H819.807L818.799 943.504H815.223L814.227 946H813.075L816.567 937.48ZM818.559 942.664L817.023 938.728L815.439 942.664H818.559ZM822.096 946V937.48H828.672V946H827.592V938.44H823.176V946H822.096ZM833.301 937.48H834.213L837.693 946H836.541L835.533 943.504H831.957L830.961 946H829.809L833.301 937.48ZM835.293 942.664L833.757 938.728L832.173 942.664H835.293Z" fill="#1C1C1C"/>
<path d="M753.32 1063.15L753.32 1062.55L759 1060.23L759 1060.99L757.336 1061.67L757.336 1064.05L759 1064.71L759 1065.48L753.32 1063.15ZM756.776 1061.83L754.152 1062.85L756.776 1063.91L756.776 1061.83ZM760.088 1059.87L758.36 1059.87L758.36 1059.61C758.36 1059.46 758.301 1059.33 758.184 1059.22C758.061 1059.11 757.869 1059.01 757.608 1058.93C757.341 1058.85 756.987 1058.79 756.544 1058.74C756.101 1058.69 755.555 1058.66 754.904 1058.64L753.32 1058.6L753.32 1055.08L758.36 1055.08L758.36 1054.37L760.088 1054.37L760.088 1055.01L759 1055.01L759 1059.23L760.088 1059.23L760.088 1059.87ZM758.36 1058.65L758.36 1055.8L753.96 1055.8L753.96 1057.93L754.992 1057.96C755.664 1057.97 756.227 1058.01 756.68 1058.06C757.133 1058.11 757.496 1058.19 757.768 1058.28C758.04 1058.38 758.237 1058.5 758.36 1058.65ZM759 1048.5L754.664 1048.5L758 1050.37L758 1050.81L754.664 1052.69L759 1052.69L759 1053.41L753.32 1053.41L753.32 1052.65L757.008 1050.6L753.32 1048.53L753.32 1047.78L759 1047.78L759 1048.5ZM759 1046.38L753.32 1046.38L753.32 1045.66L758 1045.66L753.32 1042.37L753.32 1041.7L759 1041.7L759 1042.42L754.408 1042.42L759 1045.67L759 1046.38ZM753.32 1035.74L759 1035.74L759 1036.46L756.416 1036.46L756.416 1039.58L759 1039.58L759 1040.3L753.32 1040.3L753.32 1039.58L755.776 1039.58L755.776 1036.46L753.32 1036.46L753.32 1035.74ZM759 1034.54L758.104 1034.54L758.104 1033.95L759 1033.95L759 1034.54ZM769 1075.51L763.32 1075.51L763.32 1071.12L769 1071.12L769 1071.84L763.96 1071.84L763.96 1074.79L769 1074.79L769 1075.51ZM769.04 1067.46C769.04 1067.86 768.96 1068.22 768.8 1068.55C768.64 1068.87 768.424 1069.16 768.152 1069.4C767.875 1069.63 767.565 1069.81 767.224 1069.94C766.877 1070.07 766.523 1070.13 766.16 1070.13C765.781 1070.13 765.421 1070.07 765.08 1069.93C764.733 1069.79 764.427 1069.61 764.16 1069.37C763.888 1069.12 763.675 1068.83 763.52 1068.51C763.36 1068.18 763.28 1067.83 763.28 1067.45C763.28 1067.05 763.363 1066.68 763.528 1066.36C763.693 1066.03 763.915 1065.75 764.192 1065.52C764.469 1065.28 764.779 1065.1 765.12 1064.97C765.461 1064.85 765.811 1064.78 766.168 1064.78C766.547 1064.78 766.909 1064.85 767.256 1064.98C767.597 1065.11 767.904 1065.3 768.176 1065.55C768.443 1065.79 768.653 1066.07 768.808 1066.4C768.963 1066.72 769.04 1067.08 769.04 1067.46ZM766.16 1069.41C766.448 1069.41 766.728 1069.36 767 1069.27C767.267 1069.17 767.504 1069.04 767.712 1068.87C767.92 1068.7 768.085 1068.49 768.208 1068.25C768.331 1068.01 768.392 1067.75 768.392 1067.45C768.392 1067.15 768.328 1066.88 768.2 1066.64C768.072 1066.4 767.901 1066.19 767.688 1066.03C767.475 1065.86 767.235 1065.73 766.968 1065.65C766.701 1065.55 766.432 1065.51 766.16 1065.51C765.872 1065.51 765.595 1065.56 765.328 1065.65C765.061 1065.74 764.824 1065.88 764.616 1066.05C764.403 1066.22 764.237 1066.43 764.12 1066.67C763.997 1066.9 763.936 1067.17 763.936 1067.45C763.936 1067.76 764 1068.03 764.128 1068.27C764.251 1068.51 764.419 1068.71 764.632 1068.89C764.845 1069.05 765.085 1069.18 765.352 1069.27C765.613 1069.36 765.883 1069.41 766.16 1069.41ZM769 1058.87L764.664 1058.87L768 1060.74L768 1061.18L764.664 1063.06L769 1063.06L769 1063.78L763.32 1063.78L763.32 1063.02L767.008 1060.96L763.32 1058.9L763.32 1058.15L769 1058.15L769 1058.87ZM768.36 1052.93L769 1052.93L769 1056.79L763.32 1056.79L763.32 1053L763.96 1053L763.96 1056.07L765.8 1056.07L765.8 1053.4L766.4 1053.4L766.4 1056.07L768.36 1056.07L768.36 1052.93ZM770.08 1045.46L769 1045.46L769 1051.94L763.32 1051.94L763.32 1051.22L768.36 1051.22L768.36 1049.1L763.32 1049.1L763.32 1048.38L768.36 1048.38L768.36 1046.25L763.32 1046.25L763.32 1045.53L768.36 1045.53L768.36 1044.82L770.08 1044.82L770.08 1045.46ZM768.36 1040.01L769 1040.01L769 1043.87L763.32 1043.87L763.32 1040.08L763.96 1040.08L763.96 1043.15L765.8 1043.15L765.8 1040.48L766.4 1040.48L766.4 1043.15L768.36 1043.15L768.36 1040.01ZM763.32 1034.46L769 1034.46L769 1035.18L766.416 1035.18L766.416 1038.3L769 1038.3L769 1039.02L763.32 1039.02L763.32 1038.3L765.776 1038.3L765.776 1035.18L763.32 1035.18L763.32 1034.46ZM769 1033.05L763.32 1033.05L763.32 1032.33L768 1032.33L763.32 1029.05L763.32 1028.37L769 1028.37L769 1029.09L764.408 1029.09L769 1032.34L769 1033.05ZM768.36 1023.12L769 1023.12L769 1026.98L763.32 1026.98L763.32 1023.19L763.96 1023.19L763.96 1026.26L765.8 1026.26L765.8 1023.59L766.4 1023.59L766.4 1026.26L768.36 1026.26L768.36 1023.12Z" fill="#1C1C1C"/>
<path d="M840.974 875.177C840.895 875.211 840.824 875.259 840.764 875.319L840.761 875.315L838.129 877.856L839.059 878.754L840.568 877.298V883.387H841.884V877.298L843.392 878.754L844.323 877.856L841.691 875.315C841.503 875.133 841.22 875.079 840.974 875.177Z" fill="#1C1C1C"/>
<path d="M856.962 898.823C857.04 898.789 857.111 898.741 857.171 898.681L857.175 898.685L859.807 896.144L858.876 895.246L857.368 896.702V890.613H856.052V896.702L854.543 895.246L853.613 896.144L856.245 898.685C856.433 898.867 856.716 898.921 856.962 898.823Z" fill="#1C1C1C"/>
<path d="M858.065 876.161C857.601 876.161 857.226 876.541 857.226 877.009V881.249H853.032C852.569 881.249 852.194 881.628 852.194 882.097V885.488H848C847.537 885.488 847.161 885.868 847.161 886.336V889.728H842.968C842.505 889.728 842.129 890.108 842.129 890.576V893.968H837.936C837.472 893.968 837.097 894.347 837.097 894.816V899.055C837.097 899.523 837.472 899.903 837.936 899.903C838.399 899.903 838.774 899.523 838.774 899.055V895.663H842.968C843.431 895.663 843.806 895.284 843.806 894.816V891.424H848C848.463 891.424 848.839 891.044 848.839 890.576V887.184H853.032C853.496 887.184 853.871 886.805 853.871 886.336V882.945H858.065C858.528 882.945 858.903 882.565 858.903 882.097V877.857H863.097C863.56 877.857 863.936 877.477 863.936 877.009C863.936 876.541 863.56 876.161 863.097 876.161H858.065Z" fill="#1C1C1C"/>
</g>
<defs>
<clipPath id="clip0_2220_2289">
<rect width="895" height="1097" rx="8" fill="white"/>
</clipPath>
</defs>
</svg>
