<svg width="24" height="24" viewBox="0 0 24 24" fill="none" xmlns="http://www.w3.org/2000/svg">
<mask id="mask0_2027_332" style="mask-type:alpha" maskUnits="userSpaceOnUse" x="0" y="0" width="24" height="24">
<rect width="24" height="24" fill="#D9D9D9"/>
</mask>
<g mask="url(#mask0_2027_332)">
<path d="M4.5 20.5V19H19.5V20.5H4.5ZM8.06725 16.6152C7.08275 16.6152 6.24208 16.2717 5.54525 15.5845C4.84842 14.8973 4.5 14.0679 4.5 13.0963V3.5H19.6538C20.1614 3.5 20.5961 3.67658 20.9578 4.02975C21.3193 4.38308 21.5 4.81225 21.5 5.31725V7.93275C21.5 8.43775 21.3193 8.86692 20.9578 9.22025C20.5961 9.57342 20.1614 9.75 19.6538 9.75H17.6538V13.0963C17.6538 14.0679 17.3054 14.8973 16.6087 15.5845C15.9119 16.2717 15.0712 16.6152 14.0865 16.6152H8.06725ZM8.06725 15.1155H14.0865C14.655 15.1155 15.1417 14.9173 15.5465 14.521C15.9513 14.1248 16.1538 13.6486 16.1538 13.0922V5H6V13.096C6 13.6525 6.20242 14.1282 6.60725 14.523C7.01208 14.918 7.49875 15.1155 8.06725 15.1155ZM17.6538 8.25H19.6538C19.7499 8.25 19.8317 8.21958 19.899 8.15875C19.9663 8.09775 20 8.02242 20 7.93275V5.31725C20 5.22758 19.9663 5.15225 19.899 5.09125C19.8317 5.03042 19.7499 5 19.6538 5H17.6538V8.25ZM8.06725 15.1155H6H16.1538H8.06725Z" fill="#F15921"/>
</g>
</svg>
