<svg width="24" height="24" viewBox="0 0 24 24" fill="none" xmlns="http://www.w3.org/2000/svg">
<g clip-path="url(#clip0_2421_4182)">
<path fill-rule="evenodd" clip-rule="evenodd" d="M17.4092 18.3641C17.6726 18.6275 18.1003 18.6275 18.3638 18.3641C18.6272 18.1006 18.6272 17.6729 18.3638 17.4095L12.9543 12L18.3638 6.59053C18.6272 6.32706 18.6272 5.89941 18.3638 5.63594C18.1003 5.37247 17.6726 5.37247 17.4092 5.63594L11.9997 11.0454L6.59043 5.63614C6.32696 5.37267 5.8993 5.37267 5.63584 5.63614C5.37237 5.8996 5.37237 6.32726 5.63584 6.59073L11.0451 12L5.63584 17.4093C5.37237 17.6727 5.37237 18.1004 5.63584 18.3639C5.8993 18.6273 6.32696 18.6273 6.59043 18.3639L11.9997 12.9546L17.4092 18.3641Z" fill="white"/>
</g>
<defs>
<clipPath id="clip0_2421_4182">
<rect width="24" height="24" fill="white"/>
</clipPath>
</defs>
</svg>
